<svg xmlns="http://www.w3.org/2000/svg" version="1.1" width="600px" height="600px" viewBox="0 0 200 200" style="overflow:hidden!important;"><defs id="SvgjsDefs17934"></defs><g id="svga-group-wrapper"><g id="svga-group-backs-single"><path id="SvgjsPath18770" d="M0 0h200v200H0V0z" fill="#cdb380" stroke-width="none" opacity="1"></path><path id="SvgjsPath18771" d="M0 0h18.2v200H0V0zm36.4 0h18.2v200H36.4V0zm36.3 0h18.2v200H72.7V0zm36.4 0h18.2v200h-18.2V0zm36.3 0h18.2v200h-18.2V0zm36.4 0H200v200h-18.2V0z" fill="#be9f63" stroke-width="none" opacity="1"></path></g><g id="svga-group-humanwrap-move" transform="matrix(1,0,0,1,0,0)"><g id="svga-group-humanwrap" transform="matrix(1,0,0,1,0,0)"><g id="svga-group-hair-back-move" transform="matrix(1,0,0,1,0,0)"><g id="svga-group-hair-back" transform="matrix(1,0,0,1,0,0)"></g></g><g id="svga-group-humanbody-back"><path id="SvgjsPath18331" d="m170 180.3-27.3-6.9-18-9.9-1.5-28.2H76.8l-1.5 28.2-18 9.9-27.3 6.9-9.1 19.7-3 20h164.2l-3-20z" fill="#f4baa3" stroke-width="none" opacity="1" stroke="none"></path><path id="SvgjsPath18332" d="m76.8 135.3-1.5 28.2-18 9.9-27.3 6.9-9.1 19.7-3 20h14.6v-20l2.7-17.7 23.8-6.4 24.7-8.3 3.5-32.3z" fill="#d58464" stroke-width="none" opacity="1" stroke="none"></path></g><g id="svga-group-chinshadow-single"><path id="SvgjsPath18733" d="m123.7 145.5-.5-10.2H76.8l-.8 15.1 7.1 6.4 14.1 4.1 14.2-4.1z" fill="#c66c49" stroke-width="none" opacity="1"></path></g><g id="svga-group-humanbody-front"><path id="SvgjsPath18333" d="m92.8 168.3 2 7.9 6.9 4.6s-8.5-3-8.7-3.6c-.2-.6-.2-8.9-.2-8.9z" fill="#d58464" stroke-width="none" opacity="1" stroke="none"></path></g><g id="svga-group-clothes-single"><path id="SvgjsPath18474" d="m179.8 179.4-4.1-1.2-3.7-3.2-17.2-6.6H45.2L28 175l-3.7 3.2-4.1 1.2-5 16V220H184.8v-24.6z" fill="#1d282e" stroke-width="none" opacity="1"></path><path id="SvgjsPath18475" d="M165 217.7v.2-.2zm3.5-26.6-3.1 12.6s-.3 12.2-.4 14c.1-1.8 1.6-13.8 1.6-13.8l3.3-12.2 3.9-10.9-5.3 10.3zM154 169.8l-31.2-1.4H45.2L28 175l-3.7 3.2-4.1 1.1-5 16V220h7.9v-24l4.1-11.6 5.6 6.6 4.5 14.2 1.2 14.7h.3l-.2-16.3-4.1-12.8-4.5-8.5 11.5-3.3 1.8 3.9 11.4 14.7 11.6 8.7 13.8 3.9 17.6 5.4 1.9 4.4h6.1l1.3-3.8 13.8-.6s10.1-7.8 10.7-8.3c.6-.4 11.6-7.2 11.6-7.2l8.7-4.8 7.4-10.9-1.4-10.1-3.8-4.5z" fill="#101a1f" stroke-width="none" opacity="1"></path><path id="SvgjsPath18476" d="m76.4 143.6-6.4-2.9s-6.2 3.7-6.8 3.5c-.6-.2-10.1.8-10.1.8l-6.8 5.4 4.1-1-9.3 9.9-1.7 11.4 3.7-7-1.9 12.6 8.3 12.2-1.2-8.3 4.5 11.4s5.8 6.4 5.6 5.8-1.5-5.4-1.5-5.4l8.1 9.5 11.8 4.1-1.9-4.1 10.7 7.6 11.6 3.3 6.4 4.1-1.9-5.8 9.3 2.9h7.4l-2.9-2.7 8.9-6.4-1.7 5.2 9.7-5.2 5.8-7.6-1.4 5.8 5.8-6 2.9-7-1.2 7.4 7.2-7.8 3.3-13.8 1.4 7.2.4-11.4-4.1-8.9 4.1 3.1-5.8-10.9-7.2-3.3 5.4.2-9.7-6h-8.5l4.5-1.9-9.5-.4-2.5 1-2.1 3.7-8.5 3.1-3.5 3.3 2.9-.2-4.5 3.1-4.3 2.7-1 1.9 2.9-.8-1.9 2.3-3.1-2.1-4.7-4.1 3.5.8-3.7-2.7H90l-8.5-4.5 3.7.4-2.9-2.3-4.1-.2-.6-3.1-1.2-1.9z" fill="#40484d" stroke-width="none" opacity="1"></path><path id="SvgjsPath18477" d="m76.4 143.6-6.4-2.9s-6.2 3.7-6.8 3.5c-.6-.2-10.1.8-10.1.8l-6.8 5.4 4.1-1-9.3 9.9-1.7 11.4 3.7-7-1.9 12.6 8.3 12.2-1.2-8.3 4.5 11.4s5.8 6.4 5.6 5.8-1.5-5.4-1.5-5.4l8.1 9.5 11.8 4.1-1.9-4.1 10.7 7.6 11.6 3.3 6.4 4.1-1.9-5.8 9.3 2.9h7.4l-2.9-2.7 8.9-6.4-1.7 5.2 9.7-5.2 5.8-7.6-1.4 5.8 5.8-6 2.9-7-1.2 7.4 7.2-7.8 3.3-13.8 1.4 7.2.4-11.4-4.1-8.9 4.1 3.1-5.8-10.9-7.2-3.3 5.4.2-9.7-6h-8.5l4.5-1.9-9.5-.4-2.5 1-2.1 3.7-8.5 3.1-3.5 3.3 2.9-.2-4.5 3.1-4.3 2.7-1 1.9 2.9-.8-1.9 2.3-3.1-2.1-4.7-4.1 3.5.8-3.7-2.7H90l-8.5-4.5 3.7.4-2.9-2.3-4.1-.2-.6-3.1-1.2-1.9z" fill="#ffffff" stroke-width="none" opacity="0.85"></path><path id="SvgjsPath18478" d="m52.6 155.1-2.8 9.7 3.3 12.9-2-12.6 1.5-10zm6.5 18.9s1.6 11.5 1.6 11-.5-11-.5-11l2.5-7c-.5-.1-3.6 7-3.6 7zm-2.4-11 .3 5.6.8-6.1 2.1-5.7-3.2 6.2zm-13.1 7.9 1.6 6.1-.5-6.6 1.5-5.7-2.6 6.2zm24.2 13.4 2.3 7.5 9.8 4.6-9-5.7-3.1-6.4zm-2.8-6.7-1.3 7 2 8.5-1-8.5.3-7zm23.1 6.4-10.3-3.4-3.1-7.9 2.3 9.5 11.1 1.8zm-19-7.9 1.3 6.9-.2-6.7 1.1-6.9-2.2 6.7zm21.6 28-5.4-5.9 4.8 7.2 6.9 2.3 2.3 3.4-1.3-4.6-7.3-2.4zm6.7-38.5 4.1 6.9 1.6 5.1-.3-4.6-3.1-5.7 5.7 2.5 6.4 7.5 3.9 1-3.4-2.1-6.2-7.2s-5.4-3.1-5.9-3.3-5.2-7.9-5.2-7.9-8.2-4.1-8.7-3.9l7.2 4.4 3.9 7.3zm12.4 12.3 1.6 5.6s6.9 8 6.7 7.5-5.7-7.5-5.7-8c.1-.5-2.6-5.1-2.6-5.1zm8.1 19s.3 6.6.3 7.2 1.3-6.7 1.3-6.7-3.3-6.1-3.4-6.6l1.8 6.1zm-23.6 1.8 9.6 4.6-9-5.7-4.2-6.1 3.6 7.2zm6.9-1.2 9.5 3.9 4.9 7.4-4.4-8.3-10-3zm.3 8.7s6.6 4.8 7.2 4.9c.7.2 5.7.8 5.7.8l-6.1-2.1-6.8-3.6zm-32.2-11.9 1.3 5.1 4.4 4.4-3.3-4.8-2.4-4.7zM55 177.4l-1 9.7 3.1 7.5-2-7.8-.1-9.4zm-.5-27.6-9.7 7-2.8 4.1 3.4-3 9.1-8.1zm7.4-3.2-7.4-.5-3.9 2 3.9-.8 7.4-.7zm17.8 6.8-4.4-7.4-7.7-.3 7.2 1.5 4.9 6.2zm-9.9 7.6-1.3-7 .5 8 6.9 2.1-6.1-3.1zm14.4-5 6.4 6.7-5.4-7.9s-7.4-1.5-7.9-1.5l6.9 2.7zm.3 17.1-5.4-6.4 4.2 7.5 6.4 2-5.2-3.1zm37.1-23.5c-.7.2-7.7 2.3-7.7 2.3l-1 2.4 2.3-2 6.4-2.7zm-7.3 7.3-8 4.4-1.6 3.9 2.9-3.6 6.7-4.7zm-1.8 16.2 1.2-6.2 3.1-5.4-4.4 5.2.1 6.4zm18.6-28.7-4.6 2-4.6 4.9 5.1-3.8 4.1-3.1zm7.4 5.2 8.2 1.3s-7.5-2.8-8.2-2.8-7.4.6-7.4.6l7.4.9zm10.5 7.7 5.2 4.9s-4.1-5.6-4.4-6.1c-.3-.5-11.6-2-11.6-2l10.8 3.2zm3.4 13.9-.3 9 2.1-9.3-7-8.5 5.2 8.8zm-6.2 20.3c0 .5 2-2.5 2-2.5l1.5-7.2-2.3 5.9c-.1 0-1.2 3.3-1.2 3.8zm-9.2 4.1 4.4-2.6 2.8-6.7-3.6 5.4-3.6 3.9zm-9 8.6 4.6-3.3 2.1-8-3.3 6.9-3.4 4.4zm-5.7-7.3-.2-8-5.4-8.2 4.4 8.4 1.2 7.8zm-2.1 9 3.9-6.6.2-5.1-2 5.7-2.1 6zm27.6-31.6-3.1-9.3 1.5 9.2-1.8 5.9 3.4-5.8zm-5.6 2.3-2.8 5.6-4.9 4.7 6.1-4.1 1.6-6.2zm-1.9-18.3-7-2 6.4 3.1 3.4 3.6-2.8-4.7zm-4.4 10.9-4.4-8.5 2.4 8.7v6.7l2-6.9zm-3.6-15.2-4.4-1.1-6.4 3.3 6.4-2.1h4.4zm1.8 25.9-4.4 6.9-3.8 3.3 4.4-2.4 3.8-7.8z" fill="#101a1f" stroke-width="none" opacity="0.5"></path><path id="SvgjsPath18479" d="m109.3 181.8-1-6.7-3.5-3.2 2 4 2.5 5.9zm3-3.2 3.5 6.2 3.5 5.9-1.5-5.7-5.5-6.4zm-17.8-10.9 4.7 3.5-2.5-3.7-3.2-7.9-4.2-2.2 3.7 3.5 1.5 6.8zm14.5 18.8 2 6.2 2.7 7.4-.7-7.4-4-6.2zm-27.9 3.9-3.7-4.4 2.7 5.9 8.2 2.5-7.2-4zm12.4-3.4 4.7 6.2 8.2 2.7-7.9-3.9-5-5zm-9.8-9.8c-.2-.1-.3-.1-.4-.1l.4.1zm0 0c1.4.7 5.7 4.1 6.5 4.1 1 0 8.7-.5 8.7-.5l-8.2-1-7-2.6zm16 7.3 5.2 5.7s4.7 5.2 4.4 4.2-3-5.7-3-5.7l-6.6-4.2zm40.7-13.8-1.5 5.9 3.5-4.9-2.5-6.7.5 5.7zm-6.3 19.9 4.3-.8 2.1-3.5-3.1 2.3-3.3 2zm-8.3 9 3.1-1.9 2.9-6.7-3.9 5.5-2.1 3.1zm4.7-24.1-1.3 7.1 2.7-6.7-2.4-9.4 1 9zm5.4-15-3.9-4-5.3.1 4.7.9 4.5 3zm-18 16.5.5-8.4 2.6-6.6-3.8 5.6.7 9.4zm30-17.8s-4.6-2.1-5.1-2l4 2.1 3.8 3.4-2.7-3.5zm-10.6-8.3-5.1.4 9.6 1.1-4.5-1.5zm-13.7 31.2.3 5.9.9-5.5-.3-6-.9 5.6zM83.8 186l5.6 2.8 4.6 3.8-3.2-4.4c0-.1-6.6-2.4-7-2.2zm-3.4 13.6s4 6.3 4.4 6.3 7.6 2.7 7.6 2.7l-7-3.6-5-5.4zm-19.1-11.9 2.7 9.2 6.6 4.8-5.9-5.6-3.4-8.4zm3.9-18.2 1.7 7.8-.7-7.8.8-4.9-1.8 4.9zM58 150.1l-4 6.8 4.8-5.5 6.6-1.2-7.4-.1zm20.7 12.4-3.2-4.3 1.9 5 7.5 4.5-6.2-5.2z" fill="#ffffff" stroke-width="none" opacity="1"></path></g><g id="svga-group-head" transform="matrix(1,0,0,1,0,0)"><g id="svga-group-ears-left-move" transform="matrix(1,0,0,1,0,0)"><g id="svga-group-ears-left" transform="matrix(1,0,0,1,0,0)"><path id="SvgjsPath18498" d="M60.9 93s-5.5-3-7.7-3.9c0 0-3.9 5.4-5.1 7.2 0 0 3.1 14.7 3.9 17.3l5 6.5 5.4-1.7 4.2-14.2L60.9 93z" fill="#f4baa3" stroke-width="none" opacity="1" stroke="none"></path><path id="SvgjsPath18499" d="M58.8 104.7c-.2-.4-6-10-6-10l-2.3 7.9 2.6-2.4 1.6 2.9s-.3 5-.2 5.5c0 .5 2.4 4.3 2.4 4.3l1.9-8.2z" fill="#d58464" stroke-width="none" opacity="1" stroke="none"></path><path id="SvgjsPath18500" d="m58.4 98-5.2-8.9c2.2.9 7.7 1.8 7.7 1.8l5.7 13.3-4.2 14.2-5.4 1.7 3.6-3.4L58.4 98z" fill="#e59e82" stroke-width="none" opacity="1" stroke="none"></path></g></g><g id="svga-group-ears-right-move" transform="matrix(1,0,0,1,0,0)"><g id="svga-group-ears-right" transform="matrix(1,0,0,1,0,0)"><path id="SvgjsPath18501" d="M139.1 93s5.5-3 7.7-3.9c0 0 3.9 5.4 5.1 7.2 0 0-3.1 14.7-3.9 17.3l-5 6.5-5.4-1.7-4.2-14.2 5.7-11.2z" fill="#f4baa3" stroke-width="none" opacity="1" stroke="none"></path><path id="SvgjsPath18502" d="M141.2 104.7c.2-.4 6-10 6-10l2.3 7.9-2.6-2.4-1.6 2.9s.3 5 .2 5.5c0 .5-2.4 4.3-2.4 4.3l-1.9-8.2z" fill="#d58464" stroke-width="none" opacity="1" stroke="none"></path><path id="SvgjsPath18503" d="m141.6 98 5.2-8.9c-2.2.9-7.7 1.8-7.7 1.8l-5.7 13.3 4.2 14.2 5.4 1.7-3.6-3.4 2.2-18.7z" fill="#e59e82" stroke-width="none" opacity="1" stroke="none"></path></g></g><g id="svga-group-faceshape-wrap" transform="matrix(1,0,0,1,0,0)"><g id="svga-group-faceshape-single"><path id="SvgjsPath18723" d="M138.1 60c-6.9-11.6-19.7-19.5-19.7-19.5-7.2-1.5-18.4-2.3-18.4-2.3s-11.1.8-18.4 2.3c0 0-12.8 7.9-19.7 19.5 0 0-5.1 14.5-5.3 24.8l3.7 42.9 25.6 23.5 14.1 4 14.1-4 25.6-23.5 3.7-42.9c-.2-10.3-5.3-24.8-5.3-24.8z" fill="#f4baa3" stroke-width="none" opacity="1"></path><path id="SvgjsPath18724" d="M86.5 148.4 66.3 125l-3.8-40.6 3.6-22.8c1.9-3.3 17.1-17.5 17.1-17.5l16.6-3 18.6-.6c-7.2-1.5-18.4-2.3-18.4-2.3s-11.1.8-18.4 2.3c0 0-12.8 7.9-19.7 19.5 0 0-5.1 14.5-5.3 24.8l3.7 42.9 25.6 23.5 14.1 4 14.1-4-14.4 2.6-13.2-5.4z" fill="#d58464" stroke-width="none" opacity="1"></path></g></g><g id="svga-group-mouth-single-move" transform="matrix(1,0,0,1,0,0)"><g id="svga-group-mouth-single" transform="matrix(1,0,0,1,0,0)"><path id="SvgjsPath18759" d="m91.05 134.5 3.1 2.2 5.6-.2 6.6.6 2.7-2-2.9 1-6.5-.5-5.5.2z" fill="#d58464" stroke-width="none" opacity="1" transform="translate(0 2)"></path><path id="SvgjsPath18760" d="m89.17 128.58-1.77 2.59 7.88-2.14 2.49 1.51 3.83.27 2.37-1.45 9.7 2.06-1.77-1.92-8.85-5.39-3.26.99-2.89-1.13z" fill="#ff5027" stroke-width="none" opacity="1" transform="translate(0 2)"></path><path id="SvgjsPath18761" d="m85.3 129.9 2.3 1.9 7.5-2.4 2.8 1.6 3.7.1 2.6-1.5 9.5 2.3 1.87-1.35-2.07.45-9.6-2.7-2.5 1.9-3.5-.1-2.7-2-7.8 2.7z" fill="#f0380d" stroke-width="none" opacity="1" transform="translate(0 2)"></path></g></g><g id="svga-group-eyes-left-move" transform="matrix(1,0,0,1,0,0)"><g id="svga-group-eyes-left" transform="matrix(1,0,0,1,0,0)"><g id="svga-group-eyesback-left"><path id="SvgjsPath18530" d="m90.8 98.4-5.4-7.8-4.8.6L69.9 97s8.1 5.1 10.3 6.1l8.1-2.9 2.5-1.8z" fill="#ffffff" stroke-width="none" opacity="1"></path></g><g id="svga-group-eyesiriswrapper-left" transform="matrix(1,0,0,1,0,0)"><g id="svga-group-eyesiriscontrol-left" transform="matrix(1,0,0,1,0,0)"><g id="svga-group-eyesiris-left" transform="matrix(1,0,0,1,0,0)"><path id="SvgjsPath18591" d="m75.9 95.33 1.82-4.94 5.19-.89 3.36 4.05-1.82 4.93-5.18.9z" fill="#000000" stroke-width="none" opacity="1"></path><path id="SvgjsPath18592" d="m82.7 90.07 2.98 3.58-1.61 4.37-4.59.79-2.98-3.58 1.61-4.37 4.59-.79m.42-1.13-5.78.99-2.03 5.5 3.75 4.51 5.78-.99 2.03-5.5-3.75-4.51z" fill="#9fae70" stroke-width="none" opacity="1"></path><path id="SvgjsPath18593" d="m82.91 89.5-5.19.89-1.82 4.94 5.19-.87z" fill="#1e1e1e" stroke-width="none" opacity="1"></path><path id="SvgjsPath18594" d="m76.49 95.23 1.62-4.37 4.59-.79.42-1.13-5.78.99-2.03 5.5 1.19-.2z" fill="#d9dcd0" stroke-width="none" opacity="1"></path><path id="SvgjsPath18595" d="m78.36 93.1.51-1.34 1.41-.24-.42 1.44z" fill="#2b2b2b" stroke-width="none" opacity="1"></path></g></g></g><g id="svga-group-eyesfront-left"><path id="SvgjsPath18538" d="M67.1 89.3v11.9l7.9 8.4h11.2l7.9-8.4V89.3l-7.9-8.4H75l-7.9 8.4zm2.8 7.7 10.7-5.8 4.8-.6 5.4 7.8-2.4 1.8-8.1 2.9c-2.3-1-10.4-6.1-10.4-6.1z" fill="#f4baa3" stroke-width="none" opacity="1" stroke="none"></path><path id="SvgjsPath18539" d="m92.8 98.7-7.9 7.6L91 99l-2 .8 1.5-1.4-5.3-7.3h-4.5L70.5 97l-2.8 1.2 2.2-3.8 5.3-5.3 7.5-2.4 5.3 5.6z" fill="#e59e82" stroke-width="none" opacity="1" stroke="none"></path><path id="SvgjsPath18540" d="m85.2 90.2-4.7.5-9.3 4.6-3.7 3.3 13.3-7.1 4.6.4 5.1 6.5 1.1.6z" fill="#2c1630" stroke-width="none" opacity="1" stroke="none"></path></g></g></g><g id="svga-group-eyes-right-move" transform="matrix(1,0,0,1,0,0)"><g id="svga-group-eyes-right" transform="matrix(1,0,0,1,0,0)"><g id="svga-group-eyesback-right"><path id="SvgjsPath18531" d="m109.2 98.4 5.4-7.8 4.8.6 10.7 5.8s-8.1 5.1-10.3 6.1l-8.1-2.9-2.5-1.8z" fill="#ffffff" stroke-width="none" opacity="1"></path></g><g id="svga-group-eyesiriswrapper-right" transform="matrix(1,0,0,1,0,0)"><g id="svga-group-eyesiriscontrol-right" transform="matrix(1,0,0,1,0,0)"><g id="svga-group-eyesiris-right" transform="matrix(1,0,0,1,0,0)"><path id="SvgjsPath18596" d="m113.73 95.33 1.82-4.94 5.18-.89 3.37 4.05-1.82 4.93-5.19.9z" fill="#000000" stroke-width="none" opacity="1"></path><path id="SvgjsPath18597" d="m120.53 90.07 2.98 3.58-1.61 4.37-4.59.79-2.98-3.58 1.61-4.37 4.59-.79m.41-1.13-5.78.99-2.03 5.5 3.75 4.51 5.78-.99 2.03-5.5-3.75-4.51z" fill="#9fae70" stroke-width="none" opacity="1"></path><path id="SvgjsPath18598" d="m120.73 89.5-5.18.89-1.82 4.94 5.18-.87z" fill="#1e1e1e" stroke-width="none" opacity="1"></path><path id="SvgjsPath18599" d="m114.32 95.23 1.61-4.37 4.6-.79.41-1.13-5.78.99-2.03 5.5 1.19-.2z" fill="#d9dcd0" stroke-width="none" opacity="1"></path><path id="SvgjsPath18600" d="m116.18 93.1.51-1.34 1.42-.24-.42 1.44z" fill="#2b2b2b" stroke-width="none" opacity="1"></path></g></g></g><g id="svga-group-eyesfront-right"><path id="SvgjsPath18541" d="M125 80.8h-11.2l-7.9 8.4v11.9l7.9 8.4H125l7.9-8.4V89.3l-7.9-8.5zm-5.2 22.3-8.1-2.9-2.4-1.8 5.4-7.8 4.8.6 10.7 5.8c-.1 0-8.2 5.1-10.4 6.1z" fill="#f4baa3" stroke-width="none" opacity="1" stroke="none"></path><path id="SvgjsPath18544" d="m107.2 98.7 7.9 7.6L109 99l2 .8-1.5-1.4 5.3-7.3h4.5l10.2 5.9 2.8 1.2-2.2-3.8-5.3-5.3-7.5-2.4-5.3 5.6z" fill="#e59e82" stroke-width="none" opacity="1" stroke="none"></path><path id="SvgjsPath18545" d="m114.8 90.2 4.7.5 9.3 4.6 3.7 3.3-13.3-7.1-4.6.4-5.1 6.5-1.1.6z" fill="#2c1630" stroke-width="none" opacity="1" stroke="none"></path></g></g></g><g id="svga-group-facehighlight-single"></g><g id="svga-group-eyebrows-left-move" transform="matrix(1,0,0,1,0,0)"><g id="svga-group-eyebrows-left-rotate" transform="matrix(1,0,0,1,0,0)"><g id="svga-group-eyebrows-left" transform="matrix(1,0,0,1,0,0)"><path id="SvgjsPath18448" d="m82.7 74.9-10.4-2.1-7.2 12.6 8.2-8 17.2 9.5 3.3-2.4-.8-4.6z" fill="#2a232b" stroke-width="none" opacity="1"></path><path id="SvgjsPath18449" d="m72.5 76.4-7.4 9.1 8.5-6.6L90.5 87l3.3-2.4-.1-.6c-1.6 1-3.5 2.1-3.5 2.1l-4.7-7.4 1.6 5.3-6.9-4.1-4.3-4.4 1.6 3.2-5-2.3z" fill="#1b141c" stroke-width="none" opacity="1"></path><path id="SvgjsPath18450" d="m76.4 73.6 4.4 4.9-2.6-4.5-1.8-.4zm11.1 3.6 3.1 6.5-1.1-5.5-2-1zm-15.7-3.7 2.9 1.9-2.4-2.6-.5.7z" fill="#3a353a" stroke-width="none" opacity="1"></path></g></g></g><g id="svga-group-eyebrows-right-move" transform="matrix(1,0,0,1,0,0)"><g id="svga-group-eyebrows-right-rotate" transform="matrix(1,0,0,1,0,0)"><g id="svga-group-eyebrows-right" transform="matrix(1,0,0,1,0,0)"><path id="SvgjsPath18451" d="m107 79.9-.8 4.6 3.3 2.4 17.2-9.5 8.2 8-7.2-12.6-10.4 2.1z" fill="#2a232b" stroke-width="none" opacity="1"></path><path id="SvgjsPath18452" d="m122.5 78.6 1.6-3.2-4.3 4.4-6.9 4.1 1.6-5.3-4.7 7.4s-1.9-1.1-3.5-2.1l-.1.6 3.3 2.4 16.9-8.1 8.5 6.6-7.4-9.1-5 2.3z" fill="#1b141c" stroke-width="none" opacity="1"></path><path id="SvgjsPath18453" d="m121.8 74-2.5 4.5 4.4-4.9-1.9.4zm-11.2 4.2-1.1 5.5 3.1-6.5-2 1zm17.1-5.4-2.4 2.6 2.9-1.9-.5-.7z" fill="#3a353a" stroke-width="none" opacity="1"></path></g></g></g><g id="svga-group-beardwrap" transform="matrix(1,0,0,1,0,0)"><g id="svga-group-beard-single-move" transform="matrix(1,0,0,1,0,0)"><g id="svga-group-beard-single" transform="matrix(1,0,0,1,0,0)"></g></g></g><g id="svga-group-mustache-single-move" transform="matrix(1,0,0,1,0,0)"><g id="svga-group-mustache-single" transform="matrix(1,0,0,1,0,0)"></g></g><g id="svga-group-nose-single-move" transform="matrix(1,0,0,1,0,0)"><g id="svga-group-nose-single" transform="matrix(1,0,0,1,0,0)"><path id="SvgjsPath18649" d="m101.76 120.47-1.7 1.73-1.96-1.75-7.07-1.54 2.07-10.6 1.69-.57h10.4l1.75.67 2.3 10.65-5.49 1.01z" fill="#f4baa3" stroke-width="none" opacity="1" transform="translate(0 1)" stroke="none"></path><path id="SvgjsPath18650" d="m107.26 107.86-.82-.1-1.25-.02 1.4.98 1.59 9.81-4.1 1.13-1.44.82 7.39-1.02z" fill="#d58464" stroke-width="none" opacity="1" transform="translate(0 1)" stroke="none"></path><path id="SvgjsPath18651" d="m103.87 116.99-3.57 3.73h-.61l-3.57-3.73-3.49.52 1.33 1.23 2.05-.52 3.47 4.56h1.03l3.46-4.56 2.06.52 1.33-1.23z" fill="#d58464" stroke-width="none" opacity="1" transform="translate(0 1)" stroke="none"></path><path id="SvgjsPath18652" d="m95.91 119.66-4.11-1.13 1.59-9.81 1.4-.98-.78.01 2.14-16.73-3.02 16.79-.4.05-2.77 11.6 7.39 1.02z" fill="#d58464" stroke-width="none" opacity="1" transform="translate(0 1)" stroke="none"></path><path id="SvgjsPath18653" d="m103.13 90.66 1.75 12.21.82.67-2-11.76z" fill="#d58464" stroke-width="none" opacity="1" transform="translate(0 1)" stroke="none"></path><path id="SvgjsPath18654" d="M104.83 116.16s1.99.43 1.99.21-1-7.11-1-7.11l-1-.71v7.61z" fill="#fcc9b5" stroke-width="none" opacity="1" transform="translate(0 1)" stroke="none"></path><path id="SvgjsPath18655" d="m99.93 116.94 3.06-.5-1.71-20.11-.57-1.85z" fill="#fcc9b5" stroke-width="none" opacity="1" transform="translate(0 1)" stroke="none"></path></g></g><g id="svga-group-hair-front" transform="matrix(1,0,0,1,0,0)"><path id="SvgjsPath18702" d="m124.2 43-6.2-4.3-8.8-1.2 2-5.5-1.3-5.7-6.3-4.2-10.3 1-4.8 6.2-.8 5.1 2.5 3.6-8.5 1.1-11.6 10.6 12.6-.7 15 8.1h7.1l16.1-10.8 10.7 5.2z" fill="#2a232b" stroke-width="none" opacity="1" stroke="none"></path><path id="SvgjsPath18703" d="m70.1 49.7 12.6-.7 15 8.1h7.1L121 46.3l10.7 5.2-11.9-7.8L106 54.4l-8.6.6-5.6-8.6 2.9-8.3-3.9 7.8 4.5 7.7-8.7-5.6-.1-5.7 2.9-3.9s-3.9 3.4-3.9 3.7v5.3l-5.3-.6 1.6-7.7-11.7 10.6zm31.3 5.4-1.3-6.9 1-10.1.9 10.4-.6 6.6zm10.8-4.4-1.8-7.6-4.5-5.7 5.8 4.9 2 7.6-1.5.8zm-14.7-9.9L90.2 38l-2.4-3.6.8-5.2 4.8-6.2 10.3-1 4.3 6.2-1.1 7.8s-6.6 1-6.2.7 5.3-1.4 5.2-1.8c-.1-.4.6-7.1.6-7.1l-4.6-4.4-7.6 1.7-3.7 4.9-1.1 4 1.8 3 6.2 3.8zm0-2.6c0-.8-1.6-8.1-1.1-8.6s6.5-7 6.2-6.6-4.8 7.4-4.8 7.4l-.3 7.8zm7.1.4s4.8-6 5-6.4c.2-.4.4-6 .4-6l1.3 5.8-2.1 5.5-4.6 1.1z" fill="#1b141c" stroke-width="none" opacity="1" stroke="none"></path></g><g id="svga-group-glasses-single-move" transform="matrix(1,0,0,1,0,0)"><g id="svga-group-glasses-single" transform="matrix(1,0,0,1,0,0)"></g></g></g></g></g><rect id="svga-credit-rect" width="200" height="15" x="0" y="185" fill="#ecf0f1" opacity="0.5" style="display: none;"></rect><text id="svga-credit-text" font-family="Avenir Next, Roboto, Helvetica, Arial, sans-serif" font-size="10px" text-anchor="start" font-weight="400" size="10px" anchor="start" weight="400" fill="#333333" x="33.311859130859375" y="182.7113401889801" style="display: none;"><tspan id="SvgjsTspan17987" dy="13" x="33.311859130859375">Created on AvatarMaker.com</tspan></text></g></svg>