<svg xmlns="http://www.w3.org/2000/svg" version="1.1" width="600px" height="600px" viewBox="0 0 200 200" style="overflow:hidden!important;"><defs id="SvgjsDefs13095"><linearGradient id="SvgjsLinearGradient13860" x1="79.2676" y1="84.4637" x2="79.2676" y2="113.8993" gradientUnits="userSpaceOnUse" class="svga-on-canvas-glasses-gradient-single-0-null"><stop id="SvgjsStop13861" stop-opacity="1" stop-color="#150000" offset="0.004166667" ></stop><stop id="SvgjsStop13862" stop-opacity="0.8088" stop-color="#190300" offset="0.1945" ></stop><stop id="SvgjsStop13863" stop-opacity="0.6342" stop-color="#240c00" offset="0.3684" ></stop><stop id="SvgjsStop13864" stop-opacity="0.466" stop-color="#361b00" offset="0.5359" ></stop><stop id="SvgjsStop13865" stop-opacity="0.3018" stop-color="#503100" offset="0.6994" ></stop><stop id="SvgjsStop13866" stop-opacity="0.1421" stop-color="#724c00" offset="0.8585" ></stop><stop id="SvgjsStop13867" stop-opacity="0" stop-color="#966a00" offset="1" ></stop></linearGradient><linearGradient id="SvgjsLinearGradient13869" x1="-22.7324" y1="84.4637" x2="-22.7324" y2="113.8993" gradientTransform="matrix(-1 0 0 1 98 0)" gradientUnits="userSpaceOnUse" class="svga-on-canvas-glasses-gradient-single-1-null"><stop id="SvgjsStop13870" stop-opacity="1" stop-color="#150000" offset="0.004166667" ></stop><stop id="SvgjsStop13871" stop-opacity="0.8088" stop-color="#190300" offset="0.1945" ></stop><stop id="SvgjsStop13872" stop-opacity="0.6342" stop-color="#240c00" offset="0.3684" ></stop><stop id="SvgjsStop13873" stop-opacity="0.466" stop-color="#361b00" offset="0.5359" ></stop><stop id="SvgjsStop13874" stop-opacity="0.3018" stop-color="#503100" offset="0.6994" ></stop><stop id="SvgjsStop13875" stop-opacity="0.1421" stop-color="#724c00" offset="0.8585" ></stop><stop id="SvgjsStop13876" stop-opacity="0" stop-color="#966a00" offset="1" ></stop></linearGradient></defs><g id="svga-group-wrapper"><g id="svga-group-backs-single"><path id="SvgjsPath14021" d="M0 0h200v200H0V0z" fill="#ffa673" stroke-width="none" opacity="1" stroke="none"></path><path id="SvgjsPath14022" d="M0 0v10.1L76.5 100 0 0zm0 34.1V50l76.5 58.3L0 34.1zm0 37.1v13.6l76.5 33.4L0 71.2zM38.3 0H21.1l67.2 108.3L38.3 0zm36.3 0H61l27.2 90L74.6 0zM0 108.3v9.9l76.5 9.9L0 108.3zM0 144v13.6l76.5-22.1L0 144zm0 35.7V200l88.3-64.5L0 179.7zM38.3 200h16.4l26.5-42.4L38.3 200zm85.2-100L200 10.1V0l-76.5 100zM200 50V34.1l-76.5 74.2L200 50zm0 34.8V71.2l-76.5 47L200 84.8zM178.9 0h-17.2l-50 108.3L178.9 0zM139 0h-13.6l-13.6 90L139 0zm61 118.2v-9.9L123.5 128l76.5-9.8zm0 39.4V144l-76.5-8.5 76.5 22.1zm0 42.4v-20.3l-88.3-44.2L200 200zm-54.7 0h16.4l-43-42.4 26.6 42.4zM111.7 0H88.3L100 100 111.7 0zM76.5 200h11.7l6.4-58.5L76.5 200zm35.2 0h11.7l-18.2-58.5 6.5 58.5zm-17 0h10.6l-5.3-42.4-5.3 42.4z" fill="#f08d54" stroke-width="none" opacity="1" stroke="none"></path></g><g id="svga-group-humanwrap-move" transform="matrix(1,0,0,1,0,0)"><g id="svga-group-humanwrap" transform="matrix(1,0,0,1,0,0)"><g id="svga-group-hair-back-move" transform="matrix(1,0,0,1,0,0)"><g id="svga-group-hair-back" transform="matrix(1,0,0,1,0,0)"><path id="SvgjsPath13953" d="m74.9 45.2-16.2 12-7 18.5 2.8 37.7 2.4 17.3 8 8.4 13.2 6.6 43.4 1 12.4-5.9 11.6-15.1-.2-44.9s-28.7-31.5-29-30.8c-.2.7-25.1-2.4-25.1-2.4l-16.3-2.4z" fill="#a92d1c" stroke-width="none" opacity="1" stroke="none"></path></g></g><g id="svga-group-humanbody-back"><path id="SvgjsPath13492" d="m170 180.3-27.3-6.9-18-9.9-1.5-28.2H76.8l-1.5 28.2-18 9.9-27.3 6.9-9.1 19.7-3 20h164.2l-3-20z" fill="#ebaa82" stroke-width="none" opacity="1" stroke="none"></path><path id="SvgjsPath13493" d="m76.8 135.3-1.5 28.2-18 9.9-27.3 6.9-9.1 19.7-3 20h14.6v-20l2.7-17.7 23.8-6.4 24.7-8.3 3.5-32.3z" fill="#cc7b48" stroke-width="none" opacity="1" stroke="none"></path></g><g id="svga-group-chinshadow-single"><path id="SvgjsPath13987" d="m121.5 149.1 2.2-3.8-.5-10H76.8l-.8 15.9 13.8 9.6h14.8z" fill="#bd6630" stroke-width="none" opacity="1" stroke="none"></path></g><g id="svga-group-humanbody-front"><path id="SvgjsPath13494" d="m92.8 168.3 2 7.9 6.9 4.6s-8.5-3-8.7-3.6c-.2-.6-.2-8.9-.2-8.9z" fill="#cc7b48" stroke-width="none" opacity="1" stroke="none"></path></g><g id="svga-group-clothes-single"><path id="SvgjsPath13623" d="m179.8 179.4-4.1-1.2-3.7-3.2-17.2-6.6H45.2L28 175l-3.7 3.2-4.1 1.2-5 16V220H184.8v-24.6z" fill="#638e2f" stroke-width="none" opacity="1"></path><path id="SvgjsPath13624" d="M165 217.7v.2-.2zm3.5-26.6-3.1 12.6s-.3 12.2-.4 14c.1-1.8 1.6-13.8 1.6-13.8l3.3-12.2 3.9-10.9-5.3 10.3zM154 169.8l-31.2-1.4H45.2L28 175l-3.7 3.2-4.1 1.1-5 16V220h7.9v-24l4.1-11.6 5.6 6.6 4.5 14.2 1.2 14.7h.3l-.2-16.3-4.1-12.8-4.5-8.5 11.5-3.3 1.8 3.9 11.4 14.7 11.6 8.7 13.8 3.9 17.6 5.4 1.9 4.4h6.1l1.3-3.8 13.8-.6s10.1-7.8 10.7-8.3c.6-.4 11.6-7.2 11.6-7.2l8.7-4.8 7.4-10.9-1.4-10.1-3.8-4.5z" fill="#537f1d" stroke-width="none" opacity="1"></path><path id="SvgjsPath13625" d="m76.4 143.6-6.4-2.9s-6.2 3.7-6.8 3.5c-.6-.2-10.1.8-10.1.8l-6.8 5.4 4.1-1-9.3 9.9-1.7 11.4 3.7-7-1.9 12.6 8.3 12.2-1.2-8.3 4.5 11.4s5.8 6.4 5.6 5.8-1.5-5.4-1.5-5.4l8.1 9.5 11.8 4.1-1.9-4.1 10.7 7.6 11.6 3.3 6.4 4.1-1.9-5.8 9.3 2.9h7.4l-2.9-2.7 8.9-6.4-1.7 5.2 9.7-5.2 5.8-7.6-1.4 5.8 5.8-6 2.9-7-1.2 7.4 7.2-7.8 3.3-13.8 1.4 7.2.4-11.4-4.1-8.9 4.1 3.1-5.8-10.9-7.2-3.3 5.4.2-9.7-6h-8.5l4.5-1.9-9.5-.4-2.5 1-2.1 3.7-8.5 3.1-3.5 3.3 2.9-.2-4.5 3.1-4.3 2.7-1 1.9 2.9-.8-1.9 2.3-3.1-2.1-4.7-4.1 3.5.8-3.7-2.7H90l-8.5-4.5 3.7.4-2.9-2.3-4.1-.2-.6-3.1-1.2-1.9z" fill="#88ad5c" stroke-width="none" opacity="1"></path><path id="SvgjsPath13626" d="m76.4 143.6-6.4-2.9s-6.2 3.7-6.8 3.5c-.6-.2-10.1.8-10.1.8l-6.8 5.4 4.1-1-9.3 9.9-1.7 11.4 3.7-7-1.9 12.6 8.3 12.2-1.2-8.3 4.5 11.4s5.8 6.4 5.6 5.8-1.5-5.4-1.5-5.4l8.1 9.5 11.8 4.1-1.9-4.1 10.7 7.6 11.6 3.3 6.4 4.1-1.9-5.8 9.3 2.9h7.4l-2.9-2.7 8.9-6.4-1.7 5.2 9.7-5.2 5.8-7.6-1.4 5.8 5.8-6 2.9-7-1.2 7.4 7.2-7.8 3.3-13.8 1.4 7.2.4-11.4-4.1-8.9 4.1 3.1-5.8-10.9-7.2-3.3 5.4.2-9.7-6h-8.5l4.5-1.9-9.5-.4-2.5 1-2.1 3.7-8.5 3.1-3.5 3.3 2.9-.2-4.5 3.1-4.3 2.7-1 1.9 2.9-.8-1.9 2.3-3.1-2.1-4.7-4.1 3.5.8-3.7-2.7H90l-8.5-4.5 3.7.4-2.9-2.3-4.1-.2-.6-3.1-1.2-1.9z" fill="#ffffff" stroke-width="none" opacity="0.85"></path><path id="SvgjsPath13627" d="m52.6 155.1-2.8 9.7 3.3 12.9-2-12.6 1.5-10zm6.5 18.9s1.6 11.5 1.6 11-.5-11-.5-11l2.5-7c-.5-.1-3.6 7-3.6 7zm-2.4-11 .3 5.6.8-6.1 2.1-5.7-3.2 6.2zm-13.1 7.9 1.6 6.1-.5-6.6 1.5-5.7-2.6 6.2zm24.2 13.4 2.3 7.5 9.8 4.6-9-5.7-3.1-6.4zm-2.8-6.7-1.3 7 2 8.5-1-8.5.3-7zm23.1 6.4-10.3-3.4-3.1-7.9 2.3 9.5 11.1 1.8zm-19-7.9 1.3 6.9-.2-6.7 1.1-6.9-2.2 6.7zm21.6 28-5.4-5.9 4.8 7.2 6.9 2.3 2.3 3.4-1.3-4.6-7.3-2.4zm6.7-38.5 4.1 6.9 1.6 5.1-.3-4.6-3.1-5.7 5.7 2.5 6.4 7.5 3.9 1-3.4-2.1-6.2-7.2s-5.4-3.1-5.9-3.3-5.2-7.9-5.2-7.9-8.2-4.1-8.7-3.9l7.2 4.4 3.9 7.3zm12.4 12.3 1.6 5.6s6.9 8 6.7 7.5-5.7-7.5-5.7-8c.1-.5-2.6-5.1-2.6-5.1zm8.1 19s.3 6.6.3 7.2 1.3-6.7 1.3-6.7-3.3-6.1-3.4-6.6l1.8 6.1zm-23.6 1.8 9.6 4.6-9-5.7-4.2-6.1 3.6 7.2zm6.9-1.2 9.5 3.9 4.9 7.4-4.4-8.3-10-3zm.3 8.7s6.6 4.8 7.2 4.9c.7.2 5.7.8 5.7.8l-6.1-2.1-6.8-3.6zm-32.2-11.9 1.3 5.1 4.4 4.4-3.3-4.8-2.4-4.7zM55 177.4l-1 9.7 3.1 7.5-2-7.8-.1-9.4zm-.5-27.6-9.7 7-2.8 4.1 3.4-3 9.1-8.1zm7.4-3.2-7.4-.5-3.9 2 3.9-.8 7.4-.7zm17.8 6.8-4.4-7.4-7.7-.3 7.2 1.5 4.9 6.2zm-9.9 7.6-1.3-7 .5 8 6.9 2.1-6.1-3.1zm14.4-5 6.4 6.7-5.4-7.9s-7.4-1.5-7.9-1.5l6.9 2.7zm.3 17.1-5.4-6.4 4.2 7.5 6.4 2-5.2-3.1zm37.1-23.5c-.7.2-7.7 2.3-7.7 2.3l-1 2.4 2.3-2 6.4-2.7zm-7.3 7.3-8 4.4-1.6 3.9 2.9-3.6 6.7-4.7zm-1.8 16.2 1.2-6.2 3.1-5.4-4.4 5.2.1 6.4zm18.6-28.7-4.6 2-4.6 4.9 5.1-3.8 4.1-3.1zm7.4 5.2 8.2 1.3s-7.5-2.8-8.2-2.8-7.4.6-7.4.6l7.4.9zm10.5 7.7 5.2 4.9s-4.1-5.6-4.4-6.1c-.3-.5-11.6-2-11.6-2l10.8 3.2zm3.4 13.9-.3 9 2.1-9.3-7-8.5 5.2 8.8zm-6.2 20.3c0 .5 2-2.5 2-2.5l1.5-7.2-2.3 5.9c-.1 0-1.2 3.3-1.2 3.8zm-9.2 4.1 4.4-2.6 2.8-6.7-3.6 5.4-3.6 3.9zm-9 8.6 4.6-3.3 2.1-8-3.3 6.9-3.4 4.4zm-5.7-7.3-.2-8-5.4-8.2 4.4 8.4 1.2 7.8zm-2.1 9 3.9-6.6.2-5.1-2 5.7-2.1 6zm27.6-31.6-3.1-9.3 1.5 9.2-1.8 5.9 3.4-5.8zm-5.6 2.3-2.8 5.6-4.9 4.7 6.1-4.1 1.6-6.2zm-1.9-18.3-7-2 6.4 3.1 3.4 3.6-2.8-4.7zm-4.4 10.9-4.4-8.5 2.4 8.7v6.7l2-6.9zm-3.6-15.2-4.4-1.1-6.4 3.3 6.4-2.1h4.4zm1.8 25.9-4.4 6.9-3.8 3.3 4.4-2.4 3.8-7.8z" fill="#537f1d" stroke-width="none" opacity="0.5"></path><path id="SvgjsPath13628" d="m109.3 181.8-1-6.7-3.5-3.2 2 4 2.5 5.9zm3-3.2 3.5 6.2 3.5 5.9-1.5-5.7-5.5-6.4zm-17.8-10.9 4.7 3.5-2.5-3.7-3.2-7.9-4.2-2.2 3.7 3.5 1.5 6.8zm14.5 18.8 2 6.2 2.7 7.4-.7-7.4-4-6.2zm-27.9 3.9-3.7-4.4 2.7 5.9 8.2 2.5-7.2-4zm12.4-3.4 4.7 6.2 8.2 2.7-7.9-3.9-5-5zm-9.8-9.8c-.2-.1-.3-.1-.4-.1l.4.1zm0 0c1.4.7 5.7 4.1 6.5 4.1 1 0 8.7-.5 8.7-.5l-8.2-1-7-2.6zm16 7.3 5.2 5.7s4.7 5.2 4.4 4.2-3-5.7-3-5.7l-6.6-4.2zm40.7-13.8-1.5 5.9 3.5-4.9-2.5-6.7.5 5.7zm-6.3 19.9 4.3-.8 2.1-3.5-3.1 2.3-3.3 2zm-8.3 9 3.1-1.9 2.9-6.7-3.9 5.5-2.1 3.1zm4.7-24.1-1.3 7.1 2.7-6.7-2.4-9.4 1 9zm5.4-15-3.9-4-5.3.1 4.7.9 4.5 3zm-18 16.5.5-8.4 2.6-6.6-3.8 5.6.7 9.4zm30-17.8s-4.6-2.1-5.1-2l4 2.1 3.8 3.4-2.7-3.5zm-10.6-8.3-5.1.4 9.6 1.1-4.5-1.5zm-13.7 31.2.3 5.9.9-5.5-.3-6-.9 5.6zM83.8 186l5.6 2.8 4.6 3.8-3.2-4.4c0-.1-6.6-2.4-7-2.2zm-3.4 13.6s4 6.3 4.4 6.3 7.6 2.7 7.6 2.7l-7-3.6-5-5.4zm-19.1-11.9 2.7 9.2 6.6 4.8-5.9-5.6-3.4-8.4zm3.9-18.2 1.7 7.8-.7-7.8.8-4.9-1.8 4.9zM58 150.1l-4 6.8 4.8-5.5 6.6-1.2-7.4-.1zm20.7 12.4-3.2-4.3 1.9 5 7.5 4.5-6.2-5.2z" fill="#ffffff" stroke-width="none" opacity="1"></path></g><g id="svga-group-head" transform="matrix(1,0,0,1,0,0)"><g id="svga-group-ears-left-move" transform="matrix(1,0,0,1,0,0)"><g id="svga-group-ears-left" transform="matrix(1,0,0,1,0,0)"><path id="SvgjsPath13647" d="M64.4 96.3s-7.6-6.9-9.2-8c0 0-3.7 1-6.6 2l2.7 9.3 2.9 8.6 1.4 11.5 4.2-.3 5.9-10-1.3-13.1z" fill="#ebaa82" stroke-width="none" opacity="1" stroke="none"></path><path id="SvgjsPath13648" d="M50.4 91.2 55 93l4.4 9.4-.5 8.9-3.4-5.6-.2-4.9s1.2-1.1 1.1-1.5-1.9-5.2-1.9-5.2l-3.7-2s1.3 5.7 1.1 5.4c-.1-.3-2.2-6.2-2.2-6.2l.7-.1z" fill="#cc7b48" stroke-width="none" opacity="1" stroke="none"></path><path id="SvgjsPath13649" d="M52.66 89.03c1.5-.4 2.54-.73 2.54-.73 1.6 1.1 9.2 8 9.2 8l1.3 13.1-5.9 10-4.2.3 4.3-2.9 2.3-15.7-5.9-10.3-3.64-1.77z" fill="#dc9164" stroke-width="none" opacity="1" stroke="none"></path></g></g><g id="svga-group-ears-right-move" transform="matrix(1,0,0,1,0,0)"><g id="svga-group-ears-right" transform="matrix(1,0,0,1,0,0)"><path id="SvgjsPath13650" d="M135.6 96.3s7.6-6.9 9.2-8c0 0 3.7 1 6.6 2l-2.7 9.3-2.9 8.6-1.4 11.5-4.2-.3-5.9-10 1.3-13.1z" fill="#ebaa82" stroke-width="none" opacity="1" stroke="none"></path><path id="SvgjsPath13651" d="M149.6 91.2 145 93l-4.4 9.4.5 8.9 3.4-5.6.2-4.9s-1.2-1.1-1.1-1.5c.1-.3 1.9-5.2 1.9-5.2l3.7-2s-1.3 5.7-1.1 5.4c.1-.3 2.2-6.2 2.2-6.2l-.7-.1z" fill="#cc7b48" stroke-width="none" opacity="1" stroke="none"></path><path id="SvgjsPath13652" d="M147.32 89.04c-1.5-.4-2.53-.78-2.53-.78-1.6 1.1-9.2 8.03-9.2 8.03l-1.3 13.1 5.9 10 4.2.3-4.3-2.9-2.3-15.7 5.9-10.3 3.63-1.75z" fill="#dc9164" stroke-width="none" opacity="1" stroke="none"></path></g></g><g id="svga-group-faceshape-wrap" transform="matrix(1,0,0,1,0,0)"><g id="svga-group-faceshape-single"><path id="SvgjsPath13977" d="M138.1 60c-6.9-11.6-19.7-19.5-19.7-19.5-7.2-1.5-18.4-2.3-18.4-2.3s-11.1.8-18.4 2.3c0 0-12.8 7.9-19.7 19.5 0 0-5.1 14.5-5.3 24.8l4.9 33.9 14.2 24.8 16.9 11.7h14.9l16.9-11.7 14.2-24.8 4.9-33.9c-.3-10.3-5.4-24.8-5.4-24.8z" fill="#ebaa82" stroke-width="none" opacity="1" stroke="none"></path><path id="SvgjsPath13978" d="m92.7 152.7-14.6-12.3s-11.4-20.9-11.8-21.7c-.4-.9-5-34.3-5-34.3.2-4.8 4.5-21.5 5-22.2 2.1-3.2 16.5-18 16.5-18l17.1-4.1 18.5.4c-7.2-1.5-18.4-2.3-18.4-2.3s-11.1.8-18.4 2.3c0 0-12.8 7.9-19.7 19.5 0 0-5.1 14.5-5.3 24.8l4.9 33.9 14.2 24.8 16.9 11.7h14.9l16.9-11.7-18 10.4-13.7-1.2z" fill="#cc7b48" stroke-width="none" opacity="1" stroke="none"></path></g></g><g id="svga-group-mouth-single-move" transform="matrix(1,0,0,1,0,0)"><g id="svga-group-mouth-single" transform="matrix(1,0,0,1,0,0)"><path id="SvgjsPath13845" d="m108.34 124.95-5.79-1.49-.84 1.44-1.66.6-1.76-.6-.84-1.44-5.79 1.49s-3.26 5.76-3.26 5.91l11.65-2.91 11.55 2.91c0-.15-3.26-5.91-3.26-5.91z" fill="#e0a4a0" stroke-width="none" opacity="1" transform="translate(0 2)" stroke="none"></path><path id="SvgjsPath13846" d="m85.21 129.79 3.66 1.38 11.28-2.37 11.13 2.35 3.07-1.45-3.7.6-10.6-2.8-10.77 2.84-4.07-.55z" fill="#d18580" stroke-width="none" opacity="1" transform="translate(0 2)" stroke="none"></path><path id="SvgjsPath13847" d="m91.46 137 3.3 1.7 5.7-1.2 6.4 1.2-6.4-.6-5.9 1.1z" fill="#cc7b48" stroke-width="none" opacity="1" transform="translate(0 2)" stroke="none"></path></g></g><g id="svga-group-eyes-left-move" transform="matrix(1,0,0,1,0,0)"><g id="svga-group-eyes-left" transform="matrix(1,0,0,1,0,0)"><g id="svga-group-eyesback-left"><path id="SvgjsPath13681" d="M89.9 95.9s-3.2-4.2-4.4-5.4l-7.6-.2s-3.9 3.4-5.6 5.9l4.5 5 8 .2s3.5-2.8 5.1-5.5z" fill="#ffffff" stroke-width="none" opacity="1"></path></g><g id="svga-group-eyesiriswrapper-left" transform="matrix(1,0,0,1,0,0)"><g id="svga-group-eyesiriscontrol-left" transform="matrix(1,0,0,1,0,0)"><g id="svga-group-eyesiris-left" transform="matrix(1,0,0,1,0,0)"><path id="SvgjsPath13741" d="m79.4 99.5-2.6-1.9-1-3 1-3.1 2.6-1.9h3.2l2.6 1.9 1 3.1-1 3-2.6 1.9z" fill="#ddb332" stroke-width="none" opacity="1"></path><path id="SvgjsPath13742" d="m82.5 89.8 2.5 1.8.9 2.9-.9 3-2.5 1.8h-3.1L77 97.5l-.9-2.9.9-2.9 2.5-1.8h3m.2-.6h-3.4l-2.8 2-1.1 3.2 1.1 3.2 2.8 2h3.4l2.8-2 1.1-3.2-1.1-3.2-2.8-2z" fill="#be9105" stroke-width="none" opacity="1"></path><path id="SvgjsPath13743" d="M81.8 91.9h-1.6l-1.4 1-.6 1.7.6 1.6 1.4 1h1.6l1.4-1 .6-1.6-.6-1.7z" fill="#000000" stroke-width="none" opacity="1"></path><path id="SvgjsPath13744" d="m82.4 99.2.2-.8.9.2.1-.9.8.2s-.2-.8-.1-.8.8.1.8.1l-.5-.8.8-.2-.4-.9.9-.3-.7-.5.5-.7-.7-.3.3-.9-.6-.2.2-.8h-.6l-.2-.6h-.4l-.1-.6 1.3.7.8 1.9.5 1.5-.1.5-.8 2.5-2 1.5-.9.6-2.4-.2.5-.6.5.4.6-.4.8.4z" fill="#be9105" stroke-width="none" opacity="1"></path><path id="SvgjsPath13745" d="m76.9 95.9 1.2-.4v.2l-1.2.3v-.1zm.9-1.8c-.5-.1-1-.1-1.1-.1l-.1-.2s.1 0 1.1.1l.1.2zm.5-2.9.1-.1.6.8-.1.1-.6-.8zm2.2-.7h.2v.9h-.2v-.9zm2.8 1.7.7-.6.1.1-.7.6-.1-.1zm.9 1.7.7-.1v.2l-.7.1v-.2zm-.2 1.7.1-.2.7.3-.1.2-.7-.3zm-1.5 1.6.2-.1.4.8-.2.1-.4-.8zm-3.2 1.5.4-1.2.2.1-.4 1.2-.2-.1zm-1.2-1.3.3-.4.1.1-.3.4-.1-.1z" fill="#a77e00" stroke-width="none" opacity="1"></path><path id="SvgjsPath13746" d="m80.6 92.1-1-.3-.7.7.2.9 1 .3.7-.7z" fill="#ffffff" stroke-width="none" opacity="1"></path><path id="SvgjsPath13747" d="m82.7 96.3-.5-.4-.6.4v.6l.6.4.5-.4z" fill="#ffffff" stroke-width="none" opacity="1"></path></g></g></g><g id="svga-group-eyesfront-left"><path id="SvgjsPath13689" d="M67.1 89.3v11.9l7.9 8.4h11.2l7.9-8.4V89.3l-7.9-8.4H75l-7.9 8.4zm5.2 6.9c1.8-2.5 5.6-5.9 5.6-5.9l7.6.2c1.2 1.2 4.4 5.4 4.4 5.4-1.6 2.7-5.1 5.5-5.1 5.5l-8-.2-4.5-5z" fill="#ebaa82" stroke-width="none" opacity="1" stroke="none"></path><path id="SvgjsPath13690" d="M90.5 96.7 85.3 91l-7.2-.4s-5.1 4.8-6.9 6.9l3.2-4.7 3.2-3.1 8.4.3 4.5 6.7z" fill="#131111" stroke-width="none" opacity="1" stroke="none"></path><path id="SvgjsPath13691" d="m90.2 93.8-4.6-6.6-8.3-.4s-4.4 5.4-6.3 8.9c0 0 2.7-5.8 5.7-9.2l9.3.2 4.2 7.1z" fill="#dc9164" stroke-width="none" opacity="1" stroke="none"></path></g></g></g><g id="svga-group-eyes-right-move" transform="matrix(1,0,0,1,0,0)"><g id="svga-group-eyes-right" transform="matrix(1,0,0,1,0,0)"><g id="svga-group-eyesback-right"><path id="SvgjsPath13682" d="M110.1 95.9s3.2-4.2 4.4-5.4l7.6-.2s3.9 3.4 5.6 5.9l-4.5 5-8 .2s-3.5-2.8-5.1-5.5z" fill="#ffffff" stroke-width="none" opacity="1"></path></g><g id="svga-group-eyesiriswrapper-right" transform="matrix(1,0,0,1,0,0)"><g id="svga-group-eyesiriscontrol-right" transform="matrix(1,0,0,1,0,0)"><g id="svga-group-eyesiris-right" transform="matrix(1,0,0,1,0,0)"><path id="SvgjsPath13748" d="m117.4 99.5-2.6-1.9-1-3 1-3.1 2.6-1.9h3.2l2.6 1.9 1 3.1-1 3-2.6 1.9z" fill="#ddb332" stroke-width="none" opacity="1"></path><path id="SvgjsPath13749" d="m120.5 89.8 2.5 1.8.9 2.9-.9 2.9-2.5 1.8h-3.1l-2.5-1.8-.9-2.9.9-2.9 2.5-1.8h3.1m.2-.5h-3.4l-2.8 2-1.1 3.2 1.1 3.2 2.8 2h3.4l2.8-2 1.1-3.2-1.1-3.2-2.8-2z" fill="#be9105" stroke-width="none" opacity="1"></path><path id="SvgjsPath13750" d="M119.8 91.9h-1.6l-1.4 1-.6 1.7.6 1.6 1.4 1h1.6l1.4-1 .6-1.6-.6-1.7z" fill="#000000" stroke-width="none" opacity="1"></path><path id="SvgjsPath13751" d="m120.4 99.2.2-.8.9.2.1-.9.8.2s-.2-.8-.1-.8.8.1.8.1l-.5-.8.8-.2-.4-.9.9-.3-.7-.5.5-.7-.7-.3.3-.9-.6-.2.2-.8h-.6l-.1-.5h-.4l-.1-.6 1.3.7.8 1.9.5 1.5-.1.5-.8 2.5-2 1.5-.9.6-2.4-.2.5-.6.5.4.6-.4.7.3z" fill="#be9105" stroke-width="none" opacity="1"></path><path id="SvgjsPath13752" d="m114.9 95.9 1.2-.4v.2l-1.2.4v-.2zm.9-1.8c-.5-.1-1-.1-1.1-.1l-.1-.2s.1 0 1.1.1l.1.2zm.5-2.9.1-.1.6.8-.1.1-.6-.8zm2.2-.7h.2v.9h-.2v-.9zm2.7 1.7.7-.6.1.1-.7.6-.1-.1zm1 1.7.7-.1v.2l-.7.1v-.2zm-.2 1.7.1-.2.7.3-.1.2-.7-.3zm-1.5 1.6.2-.1.4.8-.2.1-.4-.8zm-3.2 1.5.4-1.2.2.1-.4 1.2-.2-.1zm-1.2-1.3.3-.4.1.1-.3.4-.1-.1z" fill="#a77e00" stroke-width="none" opacity="1"></path><path id="SvgjsPath13753" d="m118.6 92.1-1-.3-.7.7.2.9 1 .3.7-.7z" fill="#ffffff" stroke-width="none" opacity="1"></path><path id="SvgjsPath13754" d="m120.7 96.3-.5-.4-.6.4v.6l.6.4.5-.4z" fill="#ffffff" stroke-width="none" opacity="1"></path></g></g></g><g id="svga-group-eyesfront-right"><path id="SvgjsPath13692" d="M125 80.8h-11.2l-7.9 8.4v11.9l7.9 8.4H125l7.9-8.4V89.3l-7.9-8.5zm-1.8 20.4-8 .2s-3.5-2.8-5.1-5.5c0 0 3.2-4.2 4.4-5.4l7.6-.2s3.9 3.4 5.6 5.9l-4.5 5z" fill="#ebaa82" stroke-width="none" opacity="1" stroke="none"></path><path id="SvgjsPath13695" d="m109.5 96.7 5.2-5.7 7.2-.4s5.1 4.8 6.9 6.9l-3.2-4.7-3.2-3.1-8.4.3-4.5 6.7z" fill="#131111" stroke-width="none" opacity="1" stroke="none"></path><path id="SvgjsPath13696" d="m109.8 93.8 4.6-6.6 8.3-.4s4.4 5.4 6.3 8.9c0 0-2.7-5.8-5.7-9.2l-9.3.2-4.2 7.1z" fill="#dc9164" stroke-width="none" opacity="1" stroke="none"></path></g></g></g><g id="svga-group-facehighlight-single"></g><g id="svga-group-eyebrows-left-move" transform="matrix(1,0,0,1,0,0)"><g id="svga-group-eyebrows-left-rotate" transform="matrix(1,0,0,1,0,0)"><g id="svga-group-eyebrows-left" transform="matrix(1,0,0,1,0,0)"><path id="SvgjsPath13609" d="m93.14 86.42-2.25 1.3-5.33-4.44-7.38-2.05-10.03 2.6-2.98 2.04 2.93-3.55 10.1-3 9.18 2.23z" fill="#b84131" stroke-width="none" opacity="1"></path></g></g></g><g id="svga-group-eyebrows-right-move" transform="matrix(1,0,0,1,0,0)"><g id="svga-group-eyebrows-right-rotate" transform="matrix(1,0,0,1,0,0)"><g id="svga-group-eyebrows-right" transform="matrix(1,0,0,1,0,0)"><path id="SvgjsPath13610" d="m106.86 86.42 2.25 1.3 5.33-4.44 7.38-2.05 10.03 2.6 2.98 2.04-2.93-3.55-10.1-3-9.18 2.23z" fill="#b84131" stroke-width="none" opacity="1"></path></g></g></g><g id="svga-group-beardwrap" transform="matrix(1,0,0,1,0,0)"><g id="svga-group-beard-single-move" transform="matrix(1,0,0,1,0,0)"><g id="svga-group-beard-single" transform="matrix(1,0,0,1,0,0)"></g></g></g><g id="svga-group-mustache-single-move" transform="matrix(1,0,0,1,0,0)"><g id="svga-group-mustache-single" transform="matrix(1,0,0,1,0,0)"></g></g><g id="svga-group-nose-single-move" transform="matrix(1,0,0,1,0,0)"><g id="svga-group-nose-single" transform="matrix(1,0,0,1,0,0)"><path id="SvgjsPath13817" d="m97.31 115.96-.51.3-4.8 1.87-2.77-4.13 3.14-4.97 3.45-2.99 1.68-1.12 4.94.37 1.52.45 3.67 3.29 3.23 5.19-2.96 3.95-4.7-1.91-.5-.49-2.69 1.26z" fill="#ebaa82" stroke-width="none" opacity="1" transform="translate(0 1)" stroke="none"></path><path id="SvgjsPath13818" d="m92.37 109.03-3.7 5.26 3.48 4.45 4.65-2.48-4.65 1.46-2.54-3.73z" fill="#cc7b48" stroke-width="none" opacity="1" transform="translate(0 1)" stroke="none"></path><path id="SvgjsPath13819" d="m107.63 109.03 3.7 5.26-3.48 4.45-4.65-2.48 4.65 1.46 2.54-3.73z" fill="#cc7b48" stroke-width="none" opacity="1" transform="translate(0 1)" stroke="none"></path><path id="SvgjsPath13820" d="m105.61 113.96 1.07-2.38-1.96 2.71-4.72 2.26-4.72-2.26-1.96-2.71 1.07 2.38-2.6 1.28.94 1.38 3.02-1.29 4.25 2.32 4.25-2.32 3.02 1.29.94-1.38z" fill="#cc7b48" stroke-width="none" opacity="1" transform="translate(0 1)" stroke="none"></path><path id="SvgjsPath13821" d="m95.82 106.04 1.75-.5 6.39.2-1.7-.89-5.19-.45z" fill="#cc7b48" stroke-width="none" opacity="1" transform="translate(0 1)" stroke="none"></path><path id="SvgjsPath13822" d="m97.12 96.76-.9 7.84.85-1.05.55-4.09z" fill="#cc7b48" stroke-width="none" opacity="1" transform="translate(0 1)" stroke="none"></path><path id="SvgjsPath13823" d="m95.17 108.79 2.5-1.85 4.84-.05 2.19 2.2-1.54 4.24-3.45.6-3.09-.65z" fill="#f3b792" stroke-width="none" opacity="1" transform="translate(0 1)" stroke="none"></path></g></g><g id="svga-group-hair-front" transform="matrix(1,0,0,1,0,0)"><path id="SvgjsPath13951" d="m121.2 63.1-10.7 3.8-30.9 4.8-13.3 8.7-5.8 12.5-1.5 10.7L54.5 90l-1.2-3.3 5.3-29.4 13.2-12.6 12.8-6.4 19.8-1.8 15 2.9 5.8 4.1 2.7 3.3L133 49l9.5 15.4 2.9 16.5-.4 7.6-6.2 15.8s-1.3-17.6-1.7-18.2c-.4-.6-5.1-8.9-5.1-8.9l-6.9-6.7-3.9-7.4z" fill="#b84131" stroke-width="none" opacity="1" stroke="none"></path><path id="SvgjsPath13952" d="m127.6 48.7-4.4 7-2.2 5.2 4.2-5.8 2.4-6.4zm-10.6 11-38.5 3.4-17.6 12.7-3.2 17 1 3.8.8-5.8 2.8-14.6 17.2-11.6 37.5-4.9zm4.4-4.6-17-6.2-29.6 6.2-16.3 15.2-2.6 8.7 4.6-8 15.8-12.8 28.5-7.2 16.6 4.1zm1.8-3.2-15.8-8.4s-29.3 4.2-29.9 4.6-17 11.8-17 11.8l13.4-12 7-3 28.1-3.6 14.2 10.6zm-.6 11.2 4.8 6.8 7 6.2 5 9.6 1 12 1-13.8-5.4-10.4-7.6-4.8-5.8-5.6zm3.2-5.8 7.8 7.4 7.6 8.6 2.8 9.6-.2 5.2 1.4-6.4-3.4-10.4-7.6-8.6-8.4-5.4zm2.2-4 5.6 3.2 7.2 8.4-6.6-10.2-6.2-1.4z" fill="#b03726" stroke-width="none" opacity="1" stroke="none"></path></g><g id="svga-group-glasses-single-move" transform="matrix(1,0,0,1,0,0)"><g id="svga-group-glasses-single" transform="matrix(1,0,0,1,0,0)"><path id="SvgjsPath13859" d="m96.01 93.02-.85-3.48-5.45-4.14-7.71-.94-11 1.32-4.89 2.26-3.1 4.7-.47 4.61 1.22 7.99 4.33 5.92 6.49 2.63s8.09-2.07 8.37-2.35c.28-.28 9.22-8.28 9.22-8.28l3.2-5.55.64-4.69z" fill="url(#SvgjsLinearGradient13860)" opacity="1"></path><path id="SvgjsPath13868" d="m103.99 93.02.85-3.48 5.45-4.14 7.71-.94 11 1.32 4.89 2.26 3.1 4.7.47 4.61-1.22 7.99-4.33 5.92-6.49 2.63s-8.09-2.07-8.37-2.35c-.28-.28-9.22-8.28-9.22-8.28l-3.2-5.55-.64-4.69z" fill="url(#SvgjsLinearGradient13869)" opacity="1"></path><path id="SvgjsPath13877" d="m137.59 97.34-.49-4.66-3.12-4.73-.03-.01-4.93-2.27-11-1.32-7.77.94-.03.02-5.49 4.16-.01.04-.59 2.42c-1.2-1.45-2.67-2.24-4.29-2.24-1.72 0-3.09 1.25-3.96 2.33l-.61-2.51-.01-.04-5.49-4.16-.03-.02-7.77-.94-11 1.32-4.93 2.27-.03.01-3.12 4.73-.49 4.66v.01l1.22 8.01 4.35 5.98.02.03 6.52 2.65.04.01.04-.01c1.36-.35 8.13-2.09 8.42-2.38.28-.28 9.12-8.19 9.21-8.27l3.22-5.58.61-4.29c.47-.78 1.86-2.8 3.78-2.8 1.88 0 3.19 1.26 4.07 2.63l.63 4.46 3.22 5.58c.09.08 8.94 7.99 9.21 8.27.29.29 7.07 2.04 8.42 2.38l.04.01.04-.01 6.52-2.65.02-.03 4.35-5.98 1.22-8.01.02-.01zm-42.36.34-3.18 5.51c-.53.47-8.93 7.99-9.2 8.27-.28.21-5.09 1.5-8.28 2.31l-6.42-2.61-4.29-5.87-1.22-7.95.47-4.56 3.07-4.65 4.84-2.24 10.96-1.31 7.68.94 5.4 4.09.83 3.42-.66 4.65zm40.91 7.62-4.29 5.87-6.42 2.61c-3.19-.82-8-2.1-8.28-2.31-.27-.28-8.67-7.79-9.2-8.27l-3.18-5.51-.65-4.66.83-3.42 5.4-4.09 7.68-.94 10.96 1.31 4.84 2.24 3.07 4.65.47 4.56-1.23 7.96z" fill="#e05f48" stroke-width="none" opacity="1"></path></g></g></g></g></g><rect id="svga-credit-rect" width="200" height="15" x="0" y="185" fill="#ecf0f1" opacity="0.5" style="display: none;"></rect><text id="svga-credit-text" font-family="Avenir Next, Roboto, Helvetica, Arial, sans-serif" font-size="10px" text-anchor="start" font-weight="400" size="10px" anchor="start" weight="400" fill="#333333" x="33.311859130859375" y="182.7113401889801" style="display: none;"><tspan id="SvgjsTspan13148" dy="13" x="33.311859130859375">Created on AvatarMaker.com</tspan></text></g></svg>