<svg xmlns="http://www.w3.org/2000/svg" version="1.1" width="600px" height="600px" viewBox="0 0 200 200" style="overflow:hidden!important;"><defs id="SvgjsDefs12315"></defs><g id="svga-group-wrapper"><g id="svga-group-backs-single"><path id="SvgjsPath13089" d="M0 0h200v200H0V0z" fill="#c5e0dc" stroke-width="none" opacity="1" stroke="none"></path></g><g id="svga-group-humanwrap-move" transform="matrix(1,0,0,1,0,0)"><g id="svga-group-humanwrap" transform="matrix(1,0,0,1,0,0)"><g id="svga-group-hair-back-move" transform="matrix(1,0,0,1,0,0)"><g id="svga-group-hair-back" transform="matrix(1,0,0,1,0,0)"><path id="SvgjsPath13049" d="M73.5 42.9 55 55.6l-4.3 23.1v42.8l-1.8 11-4.9 9.2 7.7-9.2-4.9 15.1 6.4-11.5 2.6-6.1-.5 13.6s-3.3 11.5-2.8 10.8 5.1-10.8 5.1-10.8l3.6-9.5-1.3 11.3-2.8 11 4.9-8.7-1.8 9.7 4.9-8.7 3.8-9.2-.8 11-1.3 8.2 3.8-8.7 1.8-9.2.5 9.5-1 10 2.8-7.7 1.3 8.2 6.2-11.8 38.7.3 3.1 10.5.5-11.8 2.1 7.9 3.3 2.1-2.3-4.6-1-10.2 5.6 10.2 4.4 3.6-3.3-5.4-2.6-10.5 4.9 9.5 3.3 2.3-3.3-7.7-.3-12.3 4.9 13.1 1 5.6s1-5.6.8-6.9c-.3-1.3-3.1-14.1-3.1-14.1l6.7 16.1 2.1 1.3-5.4-24.3 5.6 14.6 5.4 7.7-4.9-13.6-1.3-10.8 4.6 12.8s-3.3-22-3.3-23.3S147 82 147 82l-.4-17.4-32.7-27.1-40.4 5.4z" fill="#955932" stroke-width="none" opacity="1" stroke="none"></path></g></g><g id="svga-group-humanbody-back"><path id="SvgjsPath12712" d="m170 180.3-27.3-6.9-18-9.9-1.5-28.2H76.8l-1.5 28.2-18 9.9-27.3 6.9-9.1 19.7-3 20h164.2l-3-20z" fill="#b2713b" stroke-width="none" opacity="1" stroke="none"></path><path id="SvgjsPath12713" d="m76.8 135.3-1.5 28.2-18 9.9-27.3 6.9-9.1 19.7-3 20h14.6v-20l2.7-17.7 23.8-6.4 24.7-8.3 3.5-32.3z" fill="#934d13" stroke-width="none" opacity="1" stroke="none"></path></g><g id="svga-group-chinshadow-single"><path id="SvgjsPath13085" d="m123.7 145.5-.5-10.2H76.8l-.8 15.1 7.1 6.4 14.1 4.1 14.2-4.1z" fill="#843e04" stroke-width="none" opacity="1"></path></g><g id="svga-group-humanbody-front"><path id="SvgjsPath12714" d="m92.8 168.3 2 7.9 6.9 4.6s-8.5-3-8.7-3.6c-.2-.6-.2-8.9-.2-8.9z" fill="#934d13" stroke-width="none" opacity="1" stroke="none"></path></g><g id="svga-group-clothes-single"><path id="SvgjsPath12851" d="m69.5 182.7 18.5 17 12.3 8.5 13.9-8.9 21-19.1V220H70.6z" fill="#ededed" stroke-width="none" opacity="1"></path><path id="SvgjsPath12852" d="m80.1 220-4.6-31.8-6-5.5.7 22.9 6.2 14.4z" fill="#d8d8d8" stroke-width="none" opacity="1"></path><path id="SvgjsPath12853" d="m75.3 163.5.6-11.1-23.3 15.9 1.3 1.1L26 180.2l-3.1.9-3.6 18.9-3.1 20h62l-6.8-40 3.9-16.5zM183.9 220l-3.1-20-3.7-18.9-3.1-.9-27.8-10.8 1.3-1.1-23.3-15.9.6 11.1 4 16.5-6.8 40h61.9z" fill="#39557e" stroke-width="none" opacity="1"></path><path id="SvgjsPath12854" d="m45.7 189.1 17.6-16.9 7.3-8.5-9 8.3-9.1-3.7 1.3 1.1L26 180.2l-3.1.9-3.6 18.9-3.2 20h12.3l2.9-32.5 1.4 1.9s4.7 12.7 5.1 13.2c.3.5 3.6 16.9 3.6 16.9L39 201.7l-5.8-13.4-1.9-1.9.2-1.8 26.2-12.8 2.3 1.4-17.6 16.3 18.1 15.1 10 15.3h1.9l-9.8-17.2-16.9-13.6zM71 175.9l.4 4.1 4-16.5.6-10.6-2.2 2.6-2.8 20.4zm75.2-6.5 1.3-1.1-9.1 3.7-9-8.3 7.3 8.5 17.6 16.9-16.9 13.7-9.8 17.2h1.9l10-15.3 18.1-15.1-17.6-16.3 6.2-3.9zm20.5 19-5.8 13.4-2.4 17.8s3.2-16.4 3.6-16.9 5.1-13.2 5.1-13.2l5.6-7.3-6.1 6.2zM129 175.9l-2.7-20.3-2.2-2.6.6 10.6 4 16.5.3-4.2z" fill="#27446f" stroke-width="none" opacity="1"></path><path id="SvgjsPath12855" d="m149.3 188.7-15.1 13s-6.8 16.2-6.8 16.8 8.5-16 8.5-16l16.6-13.4-21.1-21.7 17.9 21.3zm-10.2-17.8 6-3-16.6-11.3 14.1 11.1-3.5 3.2zm31.1 10.4-5.3 4.9-3.6 10.9 4.9-10 7.2-6.2s-25.8-9.4-26.4-9.4l23.2 9.8zm5.7 2.1L177 200l4.9 17.2-6-33.8zm-105.8-16-3.4 12.1L76.9 219l-7.5-39 .7-12.6zm-8.1 7.3-14.7 14.1 15.5 12.3-12.4-11.5L62 174.7z" fill="#4e688d" stroke-width="none" opacity="1"></path></g><g id="svga-group-head" transform="matrix(1,0,0,1,0,0)"><g id="svga-group-ears-left-move" transform="matrix(1,0,0,1,0,0)"><g id="svga-group-ears-left" transform="matrix(1,0,0,1,0,0)"><path id="SvgjsPath12871" d="m58.4 92.2-5-3.9-4.1 14.6 2.7 10.2 5.7 5.1 3.6-.9 2.8-7.6-1.4-12.6z" fill="#b2713b" stroke-width="none" opacity="1" stroke="none"></path><path id="SvgjsPath12872" d="m51.4 102 3.2-6.3 2.8 5.5.5 8s-3.1-.7-3.2-1c0-.3 1.2-6.5 1.1-6.8-.1-.3-1-3.6-1.2-3.5-.1.1-3.2 4.1-3.2 4.1z" fill="#934d13" stroke-width="none" opacity="1" stroke="none"></path><path id="SvgjsPath12873" d="m60 113.6-1.4-16.5-5.2-8.8 5.9 2.8 3.4 6 1.4 12.6-2.8 7.6-3.6.9-5.7-5.1s5.4 2.1 5.5 2.1c.3.1 2.5-1.6 2.5-1.6z" fill="#a35e26" stroke-width="none" opacity="1" stroke="none"></path></g></g><g id="svga-group-ears-right-move" transform="matrix(1,0,0,1,0,0)"><g id="svga-group-ears-right" transform="matrix(1,0,0,1,0,0)"><path id="SvgjsPath12874" d="m141.6 92.2 5-3.9 4.1 14.6-2.7 10.2-5.7 5.1-3.6-.9-2.8-7.6 1.4-12.6z" fill="#b2713b" stroke-width="none" opacity="1" stroke="none"></path><path id="SvgjsPath12875" d="m148.6 102-3.2-6.3-2.8 5.5-.5 8s3.1-.7 3.2-1-1.2-6.5-1.1-6.8c.1-.3 1-3.6 1.2-3.5.1.1 3.2 4.1 3.2 4.1z" fill="#934d13" stroke-width="none" opacity="1" stroke="none"></path><path id="SvgjsPath12876" d="m140 113.6 1.4-16.5 5.2-8.8-5.9 2.8-3.4 6-1.4 12.6 2.8 7.6 3.6.9 5.7-5.1s-5.4 2.1-5.5 2.1c-.3.1-2.5-1.6-2.5-1.6z" fill="#a35e26" stroke-width="none" opacity="1" stroke="none"></path></g></g><g id="svga-group-faceshape-wrap" transform="matrix(1,0,0,1,0,0)"><g id="svga-group-faceshape-single"><path id="SvgjsPath13075" d="M138.1 60c-6.9-11.6-19.7-19.5-19.7-19.5-7.2-1.5-18.4-2.3-18.4-2.3s-11.1.8-18.4 2.3c0 0-12.8 7.9-19.7 19.5 0 0-5.1 14.5-5.3 24.8l3.7 42.9 25.6 23.5 14.1 4 14.1-4 25.6-23.5 3.7-42.9c-.2-10.3-5.3-24.8-5.3-24.8z" fill="#b2713b" stroke-width="none" opacity="1"></path><path id="SvgjsPath13076" d="M86.5 148.4 66.3 125l-3.8-40.6 3.6-22.8c1.9-3.3 17.1-17.5 17.1-17.5l16.6-3 18.6-.6c-7.2-1.5-18.4-2.3-18.4-2.3s-11.1.8-18.4 2.3c0 0-12.8 7.9-19.7 19.5 0 0-5.1 14.5-5.3 24.8l3.7 42.9 25.6 23.5 14.1 4 14.1-4-14.4 2.6-13.2-5.4z" fill="#934d13" stroke-width="none" opacity="1"></path></g></g><g id="svga-group-mouth-single-move" transform="matrix(1,0,0,1,0,0)"><g id="svga-group-mouth-single" transform="matrix(1,0,0,1,0,0)"><path id="SvgjsPath13021" d="M108.31 133.42c-.1.1-8.13-1.76-8.13-1.76l-6.61 1.67-5.08-2.77.41 1.84 4 4.9 7.5 1.6 8.1-1.9 3.9-4.3.04-1.21s-4.04 1.84-4.13 1.93z" fill="#e28c7c" stroke-width="none" opacity="1" transform="translate(0 2)" stroke="none"></path><path id="SvgjsPath13022" d="m88.4 130.59 5.17 2.74 6.58-1.89 8.09 1.86 4.2-1.81-5.04-7.19-14.2-.1z" fill="#da7e6d" stroke-width="none" opacity="1" transform="translate(0 2)" stroke="none"></path><path id="SvgjsPath13023" d="m86.2 129.4 7.2 4.3 6.8-1.5 8.1 1.8 7.2-3.7-7.7 2.4-7.7-1.8-6.5 1.7z" fill="#d3715f" stroke-width="none" opacity="1" transform="translate(0 2)" stroke="none"></path></g></g><g id="svga-group-eyes-left-move" transform="matrix(1,0,0,1,0,0)"><g id="svga-group-eyes-left" transform="matrix(1,0,0,1,0,0)"><g id="svga-group-eyesback-left"><path id="SvgjsPath12907" d="m91.9 98.1-5.1-4.3-9.6-2.5-9.6.3 8.8 6.6 4.1 1.1z" fill="#ffffff" stroke-width="none" opacity="1"></path></g><g id="svga-group-eyesiriswrapper-left" transform="matrix(1,0,0,1,0,0)"><g id="svga-group-eyesiriscontrol-left" transform="matrix(1,0,0,1,0,0)"><g id="svga-group-eyesiris-left" transform="matrix(1,0,0,1,0,0)"><path id="SvgjsPath12963" d="m82.2 100.2-5.5-2-1-5.8 4.5-3.8 5.5 2.1 1 5.7z" fill="#ddb332" stroke-width="none" opacity="1"></path><path id="SvgjsPath12964" d="m78.2 95.4.6-3.1 3-1 2.4 2.1-.7 3.1-3 1z" fill="#000000" stroke-width="none" opacity="1"></path><path id="SvgjsPath12965" d="m78 91.7 2.2 2.1.6-.4-1.2-2.7z" fill="#ffffff" stroke-width="none" opacity="1"></path><path id="SvgjsPath12966" d="m82.1 96.4.5 1 .8-.4-.4-1z" fill="#ffffff" stroke-width="none" opacity="1"></path></g></g></g><g id="svga-group-eyesfront-left"><path id="SvgjsPath12915" d="M67.1 89.3v11.9l7.9 8.4h11.2l7.9-8.4V89.3l-7.9-8.4H75l-7.9 8.4zm.5 2.3 9.6-.3 9.6 2.5 5.1 4.3-11.4 1.1-4.1-1.1-8.8-6.5z" fill="#b2713b" stroke-width="none" opacity="1" stroke="none"></path><path id="SvgjsPath12916" d="m92.7 99.1-6.1-5-9.4-2.5-9.8.2 2.1-1.9 9.8-2.3 8.9 2.5 4.4 7.8z" fill="#934d13" stroke-width="none" opacity="1" stroke="none"></path></g></g></g><g id="svga-group-eyes-right-move" transform="matrix(1,0,0,1,0,0)"><g id="svga-group-eyes-right" transform="matrix(1,0,0,1,0,0)"><g id="svga-group-eyesback-right"><path id="SvgjsPath12908" d="m108.1 98.1 5.1-4.3 9.6-2.5 9.6.3-8.8 6.6-4.1 1.1z" fill="#ffffff" stroke-width="none" opacity="1"></path></g><g id="svga-group-eyesiriswrapper-right" transform="matrix(1,0,0,1,0,0)"><g id="svga-group-eyesiriscontrol-right" transform="matrix(1,0,0,1,0,0)"><g id="svga-group-eyesiris-right" transform="matrix(1,0,0,1,0,0)"><path id="SvgjsPath12967" d="m119.8 100.2-5.5-2-1-5.8 4.5-3.8 5.5 2.1 1 5.7z" fill="#ddb332" stroke-width="none" opacity="1"></path><path id="SvgjsPath12968" d="m115.8 95.4.7-3.1 3-1 2.3 2.1-.6 3.1-3 1z" fill="#000000" stroke-width="none" opacity="1"></path><path id="SvgjsPath12969" d="m115.7 91.7 2.2 2.1.6-.4-1.2-2.7z" fill="#ffffff" stroke-width="none" opacity="1"></path><path id="SvgjsPath12970" d="m119.7 96.4.6 1 .8-.4-.4-1z" fill="#ffffff" stroke-width="none" opacity="1"></path></g></g></g><g id="svga-group-eyesfront-right"><path id="SvgjsPath12917" d="M125 80.8h-11.2l-7.9 8.4v11.9l7.9 8.4H125l7.9-8.4V89.3l-7.9-8.5zm-1.4 17.4-4.1 1.1-11.4-1.1 5.1-4.3 9.6-2.5 9.6.3-8.8 6.5z" fill="#b2713b" stroke-width="none" opacity="1" stroke="none"></path><path id="SvgjsPath12920" d="m107.3 99.1 6.1-5 9.4-2.5 9.8.2-2.1-1.9-9.8-2.3-8.9 2.5-4.4 7.8z" fill="#934d13" stroke-width="none" opacity="1" stroke="none"></path></g></g></g><g id="svga-group-facehighlight-single"></g><g id="svga-group-eyebrows-left-move" transform="matrix(1,0,0,1,0,0)"><g id="svga-group-eyebrows-left-rotate" transform="matrix(1,0,0,1,0,0)"><g id="svga-group-eyebrows-left" transform="matrix(1,0,0,1,0,0)"><path id="SvgjsPath12829" d="m90.2 77.1 1.5 3.8-.6 4.6-14.8-.6-12.7.3 1.4-1.8 13.6-6z" fill="#a46c47" stroke-width="none" opacity="1"></path><path id="SvgjsPath12830" d="m86.9 78.8-1.5 6.4h-1l2.5-6.4zm3.9-.3.1.2-2.7 6.6-1.4-.1 4-6.7zm-16.5 6.4-2.5-3.3 3.4 3.3h-.9zm-4 .1-2 .1L66 84l4.3 1zm9.9-6.5.8 6.6h-.8v-6.6zM78.3 85l-.2-3 1 3.1-.8-.1z" fill="#955932" stroke-width="none" opacity="1"></path></g></g></g><g id="svga-group-eyebrows-right-move" transform="matrix(1,0,0,1,0,0)"><g id="svga-group-eyebrows-right-rotate" transform="matrix(1,0,0,1,0,0)"><g id="svga-group-eyebrows-right" transform="matrix(1,0,0,1,0,0)"><path id="SvgjsPath12831" d="m109.8 77.1-1.5 3.8.6 4.6 14.8-.6 12.7.3-1.4-1.8-13.6-6z" fill="#a46c47" stroke-width="none" opacity="1"></path><path id="SvgjsPath12832" d="m113.1 78.8 1.5 6.4h1l-2.5-6.4zm-3.9-.3-.1.2 2.7 6.6 1.4-.1-4-6.7zm16.5 6.4 2.5-3.3-3.4 3.3h.9zm4 .1 2 .1L134 84l-4.3 1zm-9.9-6.5-.8 6.6h.8v-6.6zm1.9 6.5.2-3-1 3.1.8-.1z" fill="#955932" stroke-width="none" opacity="1"></path></g></g></g><g id="svga-group-beardwrap" transform="matrix(1,0,0,1,0,0)"><g id="svga-group-beard-single-move" transform="matrix(1,0,0,1,0,0)"><g id="svga-group-beard-single" transform="matrix(1,0,0,1,0,0)"></g></g></g><g id="svga-group-mustache-single-move" transform="matrix(1,0,0,1,0,0)"><g id="svga-group-mustache-single" transform="matrix(1,0,0,1,0,0)"></g></g><g id="svga-group-nose-single-move" transform="matrix(1,0,0,1,0,0)"><g id="svga-group-nose-single" transform="matrix(1,0,0,1,0,0)"><path id="SvgjsPath13005" d="m96.12 99.91-.45 6.4-5.78 8.87 2.98 2.25 1.63-2.02 4.32 3.82h2.41l4.27-3.82 1.57 1.96 3.15-2.19-5.79-8.92-.56-6.46-3.82-1.63z" fill="#b2713b" stroke-width="none" opacity="1" transform="translate(0 1)" stroke="none"></path><path id="SvgjsPath13006" d="m104.86 106.44-1.95-15.67 1.1 14.55-.86-.22 6.58 10.06-2.34 1.73-1.28-1.51.28-1.34-5.15 4.47h-2.4l-5.15-4.47.29 1.34-1.29 1.51-2.34-1.73 6.59-10.06-.86.22 1.33-22.81-2.19 23.93-5.82 8.83 3.81 2.79 1.44-2.01 4.19 3.91h2.4l4.2-3.91 1.43 2.01 3.81-2.79z" fill="#934d13" stroke-width="none" opacity="1" transform="translate(0 1)" stroke="none"></path><path id="SvgjsPath13007" d="m96.15 113.17 2.37 1.46 3.1.06 2.55-1.16-.3-1.76-3.59-.6-3.94.66z" fill="#ba7b47" stroke-width="none" opacity="1" transform="translate(0 1)" stroke="none"></path></g></g><g id="svga-group-hair-front" transform="matrix(1,0,0,1,0,0)"><path id="SvgjsPath13046" d="M79.5 54.5 67 63l-6.3 29.7s1.6 32.2 1.4 33.3c-.3 1.1-8.7 15.5-8.7 15.5l5.5-16.9-3-36 .3 32.7-3.3 12.3 1.4-20.4-1.6-35.7L55 55.6l8.7-10.9 9.3-3 12.3-13.9 21.3-3L136 38.4s10.4 25.4 10.6 26.2c.3.8-1.9 23.2-1.9 23.2l-4.9 21.3.6 19.9 4.9 16.1-9.8-15.5-2.2-12.5.8 13.4 3 13.6-5.7-13.9-2.2-20.2 5.7-42.5-8.2-8.5-7.6-5.5-14.4 3H88.5l-9-2z" fill="#a46c47" stroke-width="none" opacity="1" stroke="none"></path><path id="SvgjsPath13047" d="m97.9 52.8-.2-13.1 15.4-6 14.1 6.8 6.9 9.1.8 8.9-3.3-9.3-7.5-7.3-12.7-3.9-10.2 4.8-3.3 10zm-8.1 1.9-4-4.6 7.5-11.8-4.6 11.4 1.1 5zm-7.9-13.5 5.8-9.4L107 26l29 12.5-28.4-10.3L88.9 34l-7 7.2zM139 57.8l2.3 13.1-5.8 36 1.7 22.2 3.7 6.9-2.1-7.7-.6-21.8 6-36.4-5.2-12.3zM75.2 52l-13.9 8.9L58 90l5.4-28 11.8-10z" fill="#ac7653" stroke-width="none" opacity="1" stroke="none"></path><path id="SvgjsPath13048" d="m88.5 56.4-4.6-5.8L92.7 37l20.8-4.8 13.7 7.2 8.4 9.4-7.8-10.3-14.8-8-22 5.3-10.3 14.8 3.9 5 3.9.8zm-9-1.9-3.1-5L85.8 31l20.7-6.1-21.3 3L73 41.7l.6 7.8 5.9 5zm-7.6-8.9L57.6 56.1l-2.7 21.8.8 6.7.6-7.3 3.4-20.8 12.2-10.9zm7.6 8.9-14.2 7.6-6.1 30.3 2.7 22.2-.5-23.4 6.6-28 11.5-8.7zm56-4.3 2.6 16-6.1 37.9 1.3 12.9-2.7-12.1 6-39.5-1.1-15.2zm-30.9 6.2.2-10.2 10.2-6.4 14.8 8.9 5.1 12.5v6l-1.6-6.8-5.8-10.8-12.9-6.5-8.1 4.5-1.9 8.8zm14.5-3 5-2.7 5.7 8.1 1.9 4.5-3.4-4.9-4.7-5.6-4.5.6z" fill="#9c623c" stroke-width="none" opacity="1" stroke="none"></path></g><g id="svga-group-glasses-single-move" transform="matrix(1,0,0,1,0,0)"><g id="svga-group-glasses-single" transform="matrix(1,0,0,1,0,0)"></g></g></g></g></g><rect id="svga-credit-rect" width="200" height="15" x="0" y="185" fill="#ecf0f1" opacity="0.5" style="display: none;"></rect><text id="svga-credit-text" font-family="Avenir Next, Roboto, Helvetica, Arial, sans-serif" font-size="10px" text-anchor="start" font-weight="400" size="10px" anchor="start" weight="400" fill="#333333" x="33.311859130859375" y="182.7113401889801" style="display: none;"><tspan id="SvgjsTspan12368" dy="13" x="33.311859130859375">Created on AvatarMaker.com</tspan></text></g></svg>