<svg xmlns="http://www.w3.org/2000/svg" version="1.1" width="600px" height="600px" viewBox="0 0 200 200" style="overflow:hidden!important;"><g id="svga-group-wrapper"><g id="svga-group-backs-single"><path id="SvgjsPath5118" d="M0 0h200v200H0V0z" fill="#c5e0dc" stroke-width="none" opacity="1" stroke="none"></path><path id="SvgjsPath5119" d="M100 124.2c-13.3 0-24.2-10.8-24.2-24.2S86.7 75.8 100 75.8s24.2 10.8 24.2 24.2-10.9 24.2-24.2 24.2zm0-42.4c-10 0-18.2 8.2-18.2 18.2s8.2 18.2 18.2 18.2 18.2-8.2 18.2-18.2S110 81.8 100 81.8zm0 57.4c-21.6 0-39.2-17.6-39.2-39.2S78.4 60.8 100 60.8s39.2 17.6 39.2 39.2-17.6 39.2-39.2 39.2zm0-72.4c-18.3 0-33.2 14.9-33.2 33.2s14.9 33.2 33.2 33.2 33.2-14.9 33.2-33.2-14.9-33.2-33.2-33.2zm0 87.5c-29.9 0-54.3-24.4-54.3-54.3S70.1 45.7 100 45.7 154.3 70 154.3 100s-24.4 54.3-54.3 54.3zm0-102.6c-26.6 0-48.3 21.7-48.3 48.3 0 26.6 21.7 48.3 48.3 48.3 26.6 0 48.3-21.7 48.3-48.3 0-26.6-21.7-48.3-48.3-48.3zm0 116.4c-37.6 0-68.1-30.6-68.1-68.1S62.4 31.9 100 31.9s68.1 30.6 68.1 68.1-30.5 68.1-68.1 68.1zm0-130.2c-34.2 0-62.1 27.9-62.1 62.1s27.9 62.1 62.1 62.1 62.1-27.9 62.1-62.1-27.9-62.1-62.1-62.1zm0 146.2c-46.4 0-84.1-37.7-84.1-84.1S53.6 15.9 100 15.9s84.1 37.7 84.1 84.1-37.7 84.1-84.1 84.1zm0-162.2c-43.1 0-78.1 35-78.1 78.1s35 78.1 78.1 78.1 78.1-35.1 78.1-78.1-35-78.1-78.1-78.1zm0 90c-6.6 0-11.9-5.4-11.9-11.9 0-6.6 5.4-11.9 11.9-11.9 6.6 0 11.9 5.4 11.9 11.9 0 6.6-5.3 11.9-11.9 11.9zm0-17.8c-3.3 0-5.9 2.7-5.9 5.9 0 3.3 2.7 5.9 5.9 5.9 3.3 0 5.9-2.7 5.9-5.9 0-3.3-2.6-5.9-5.9-5.9zM0 146.7v12.8c9.9 16.6 23.9 30.6 40.5 40.5h12.8C29.9 189 11 170.1 0 146.7zm200 0c-11 23.4-29.9 42.3-53.3 53.3h12.8c16.6-9.9 30.6-23.9 40.5-40.5v-12.8zm0-93.4V40.5C190.1 23.9 176.1 9.9 159.5 0h-12.8C170.1 11 189 29.9 200 53.3zm-200 0C11 29.9 29.9 11 53.3 0H40.5C23.9 9.9 9.9 23.9 0 40.5v12.8zm200 36.3C195.1 42.5 157.6 4.9 110.4 0H89.6C42.5 4.9 4.9 42.5 0 89.6v20.8c4.9 47.1 42.5 84.7 89.6 89.6h20.8c47.1-4.9 84.7-42.4 89.6-89.6V89.6zM100 194.5c-52.1 0-94.5-42.4-94.5-94.5S47.9 5.5 100 5.5s94.5 42.4 94.5 94.5-42.4 94.5-94.5 94.5zM0 176.2v9.5c4.4 5.1 9.1 9.9 14.3 14.3h9.5c-9-6.8-17-14.8-23.8-23.8zm200 0c-6.8 8.9-14.8 16.9-23.8 23.8h9.5c5.1-4.4 9.9-9.1 14.3-14.3v-9.5zM0 23.8c6.8-9 14.8-17 23.8-23.8h-9.5C9.1 4.4 4.4 9.1 0 14.3v9.5zm200 0v-9.5c-4.4-5.1-9.1-9.9-14.3-14.3h-9.5c9 6.8 17 14.8 23.8 23.8z" fill="#a3d1ca" stroke-width="none" opacity="1" stroke="none"></path></g><g id="svga-group-humanwrap-move" transform="matrix(1,0,0,1,0,0)"><g id="svga-group-humanwrap"><g id="svga-group-hair-back-move" transform="matrix(1,0,0,1,0,0)"><g id="svga-group-hair-back"></g></g><g id="svga-group-humanbody-back"><path id="SvgjsPath3776" d="m170 180.3-27.3-6.9-18-9.9-1.5-28.2H76.8l-1.5 28.2-18 9.9-27.3 6.9-9.1 19.7-3 20h164.2l-3-20z" fill="#f0c7b1" stroke-width="none" opacity="1" stroke="none"></path><path id="SvgjsPath3777" d="m76.8 135.3-1.5 28.2-18 9.9-27.3 6.9-9.1 19.7-3 20h14.6v-20l2.7-17.7 23.8-6.4 24.7-8.3 3.5-32.3z" fill="#d19271" stroke-width="none" opacity="1" stroke="none"></path></g><g id="svga-group-chinshadow-single"><path id="SvgjsPath3772" d="m121.5 149.1 2.2-3.8-.5-10H76.8l-.8 15.9 13.8 9.6h14.8z" fill="#c27b55" stroke-width="none" opacity="1" stroke="none"></path></g><g id="svga-group-humanbody-front"><path id="SvgjsPath3778" d="m92.8 168.3 2 7.9 6.9 4.6s-8.5-3-8.7-3.6c-.2-.6-.2-8.9-.2-8.9z" fill="#d19271" stroke-width="none" opacity="1" stroke="none"></path></g><g id="svga-group-clothes-single"><path id="SvgjsPath4991" d="m179.6 200-8.5-20-28.8-7.4-9.5-4.8-.1-1.5-8.3-8.8.2 3.5-1.1 12.2-7.6 7.9-9.1 1.9-2.1 5.7-2.1 2.9-7.5-9.3-10.7-1.2-5.8-7.3-3.2-13.1.2-3.2-8.3 8.8-.1 1.5-9.5 4.8L29 180l-8.6 20-3.4 20h165.9z" fill="#864025" stroke-width="none" opacity="1" stroke="none"></path><path id="SvgjsPath4992" d="m29.9 200.7 3.6-10.8 24.9-9.6 7.2-3.2.3-2 11.5-5.7h.1l-2.1-8.7.2-3.2-8.3 8.8-.1 1.5-9.5 4.8L29 180l-8.6 20-3.4 20h12.6z" fill="#773015" stroke-width="none" opacity="1" stroke="none"></path><path id="SvgjsPath4993" d="m132.8 167.8 2.7 19.2 1.2 8.7L125 188l-5.2-5.3-4.2-1.6 4 3.4-6.4 2.6-7.9 1.5 7-.6-8.7 11.8V220h1.7l-.8-19.8 7.8-12 1-.1 7.1-2.8 4.2 4.5 13.3 8.1-1.6-12.4-3.5-17.7zm-33.1 29.7 2.9-5.9-3.5 5-6.1-8.7-12.5-3.4 3.8-3.3-4.2 1.6L75 188l-11.7 7.7 1.2-8.7 2.7-19.2-3.4 17.7-1.6 12.4 13.3-8.1 4.6-4.9.5-.5 11.8 4.3 6.1 8.6-1.2.7 1.1 21.9h1.5l-1.3-21 1.1-1.4zm10.5-12.8-1.5-.8-.9 1.4 1.4 1 1-1.6zm-9.3 13.3 1.4 1 1-1.7-1.5-.8-.9 1.5zm-.8 18.6 1.4 1 1-1.7-1.5-.8-.9 1.5zm-69.7-35.3 6.8 21 1.2 17.7h1.4l-1.1-17.8-8.3-20.9zm130.5 19.3-1.2 19.4h1.9l1-19.2 7-18.2-8.7 18z" fill="#672208" stroke-width="none" opacity="1" stroke="none"></path><path id="SvgjsPath4994" d="m127 162.5-1.1-1.4v13l-5.3 8 4.8 4.6s2.3-11.1 2.3-11.8c0-.7-.7-12.4-.7-12.4zm-53.2.1.5-2.3-1.8 2.5 1.2 13.4 2.1 9.5 3.8-4.3-3.9-6.1-1.9-12.7z" fill="#955238" stroke-width="none" opacity="1" stroke="none"></path></g><g id="svga-group-head" transform="matrix(1,0,0,1,0,0)"><g id="svga-group-ears-left-move" transform="matrix(1,0,0,1,0,0)"><g id="svga-group-ears-left"><path id="SvgjsPath3678" d="M63.1 91.8s-6-.7-10.6-3.7c0 0-3.5 9.4-4 14.4 0 0 6.7 13 10 18.5 0 0 5.2-.7 6.3-1.4l1.4-8.4-3.1-19.4z" fill="#f0c7b1" stroke-width="none" opacity="1" stroke="none"></path><path id="SvgjsPath3679" d="M53.3 90c-.2-.4-.8-1.9-.8-1.9 5.2.4 10.7 1.4 10.7 1.4l3 21.6-1.4 8.4c-1.1.7-6.3 1.4-6.3 1.4-.6-1-1.3-2.3-2.1-3.6l2.6 1 3-1.6s.7-11.2.5-11.5c-.1-.3-9-14.8-9.2-15.2z" fill="#e1ac8f" stroke-width="none" opacity="1" stroke="none"></path><path id="SvgjsPath3680" d="m50.3 100.9 2.8-5.5 5.2 6.8 2.2 9.5-1.4 1.9-4.3-7.6 1-4.7-2.6-4z" fill="#d19271" stroke-width="none" opacity="1" stroke="none"></path></g></g><g id="svga-group-ears-right-move" transform="matrix(1,0,0,1,0,0)"><g id="svga-group-ears-right"><path id="SvgjsPath3681" d="M136.9 91.8s6-.7 10.6-3.7c0 0 3.5 9.4 4 14.4 0 0-6.7 13-10 18.5 0 0-5.2-.7-6.3-1.4l-1.4-8.4 3.1-19.4z" fill="#f0c7b1" stroke-width="none" opacity="1" stroke="none"></path><path id="SvgjsPath3682" d="M146.7 90c.2-.4.8-1.9.8-1.9-5.2.4-10.7 1.4-10.7 1.4l-3 21.6 1.4 8.4c1.1.7 6.3 1.4 6.3 1.4.6-1 1.3-2.3 2.1-3.6l-2.6 1-3-1.6s-.7-11.2-.5-11.5c.1-.3 9-14.8 9.2-15.2z" fill="#e1ac8f" stroke-width="none" opacity="1" stroke="none"></path><path id="SvgjsPath3683" d="m149.7 100.9-2.8-5.5-5.2 6.8-2.2 9.5 1.4 1.9 4.3-7.6-1-4.7 2.6-4z" fill="#d19271" stroke-width="none" opacity="1" stroke="none"></path></g></g><g id="svga-group-faceshape-wrap"><g id="svga-group-faceshape-single"><path id="SvgjsPath3758" d="M138.1 60c-6.9-11.6-19.7-19.5-19.7-19.5-7.2-1.5-18.4-2.3-18.4-2.3s-11.1.8-18.4 2.3c0 0-12.8 7.9-19.7 19.5 0 0-5.1 14.5-5.3 24.8l4.9 33.9 14.2 24.8 16.9 11.7h14.9l16.9-11.7 14.2-24.8 4.9-33.9c-.3-10.3-5.4-24.8-5.4-24.8z" fill="#f0c7b1" stroke-width="none" opacity="1" stroke="none"></path><path id="SvgjsPath3759" d="m92.7 152.7-14.6-12.3s-11.4-20.9-11.8-21.7c-.4-.9-5-34.3-5-34.3.2-4.8 4.5-21.5 5-22.2 2.1-3.2 16.5-18 16.5-18l17.1-4.1 18.5.4c-7.2-1.5-18.4-2.3-18.4-2.3s-11.1.8-18.4 2.3c0 0-12.8 7.9-19.7 19.5 0 0-5.1 14.5-5.3 24.8l4.9 33.9 14.2 24.8 16.9 11.7h14.9l16.9-11.7-18 10.4-13.7-1.2z" fill="#d19271" stroke-width="none" opacity="1" stroke="none"></path></g></g><g id="svga-group-mouth-single-move" transform="matrix(1,0,0,1,0,0)"><g id="svga-group-mouth-single"><path id="SvgjsPath3846" d="m91.05 134.5 3.1 2.2 5.6-.2 6.6.6 2.7-2-2.9 1-6.5-.5-5.5.2z" fill="#d19271" stroke-width="none" opacity="1" transform="translate(0 2)" stroke="none"></path><path id="SvgjsPath3847" d="m89.17 128.58-1.77 2.59 7.88-2.14 2.49 1.51 3.83.27 2.37-1.45 9.7 2.06-1.77-1.92-8.85-5.39-3.26.99-2.89-1.13z" fill="#da7c87" stroke-width="none" opacity="1" transform="translate(0 2)" stroke="none"></path><path id="SvgjsPath3848" d="m85.3 129.9 2.3 1.9 7.5-2.4 2.8 1.6 3.7.1 2.6-1.5 9.5 2.3 1.87-1.35-2.07.45-9.6-2.7-2.5 1.9-3.5-.1-2.7-2-7.8 2.7z" fill="#cb5f6c" stroke-width="none" opacity="1" transform="translate(0 2)" stroke="none"></path></g></g><g id="svga-group-eyes-left-move" transform="matrix(1,0,0,1,0,0)"><g id="svga-group-eyes-left"><g id="svga-group-eyesback-left"><path id="SvgjsPath3718" d="m90.8 100-2.5-7L77 89.8 69.6 92l5.6 8.3z" fill="#ffffff" stroke-width="none" opacity="1"></path></g><g id="svga-group-eyesiriswrapper-left" transform="matrix(1,0,0,1,0,0)"><g id="svga-group-eyesiriscontrol-left" transform="matrix(1,0,0,1,0,0)"><g id="svga-group-eyesiris-left"><path id="SvgjsPath3793" d="m82.2 100.2-5.5-2-1-5.8 4.5-3.8 5.5 2.1 1 5.7z" fill="#4e60a3" stroke-width="none" opacity="1"></path><path id="SvgjsPath3794" d="m78.2 95.4.6-3.1 3-1 2.4 2.1-.7 3.1-3 1z" fill="#000000" stroke-width="none" opacity="1"></path><path id="SvgjsPath3795" d="m78 91.7 2.2 2.1.6-.4-1.2-2.7z" fill="#ffffff" stroke-width="none" opacity="1"></path><path id="SvgjsPath3796" d="m82.1 96.4.5 1 .8-.4-.4-1z" fill="#ffffff" stroke-width="none" opacity="1"></path></g></g></g><g id="svga-group-eyesfront-left"><path id="SvgjsPath3726" d="M67.1 89.3v11.9l7.9 8.4h11.2l7.9-8.4V89.3l-7.9-8.4H75l-7.9 8.4zm2.5 2.7 7.4-2.2L88.3 93l2.5 7-15.6.3-5.6-8.3z" fill="#f0c7b1" stroke-width="none" opacity="1" stroke="none"></path><path id="SvgjsPath3727" d="m91.2 101.3-2.1-8.9-6.5-2.6-6.2-1-8.4 3.7 9-2.5 11 3.3z" fill="#000000" stroke-width="none" opacity="1" stroke="none"></path></g></g></g><g id="svga-group-eyes-right-move" transform="matrix(1,0,0,1,0,0)"><g id="svga-group-eyes-right"><g id="svga-group-eyesback-right"><path id="SvgjsPath3719" d="m109.2 100 2.5-7 11.3-3.2 7.4 2.2-5.6 8.3z" fill="#ffffff" stroke-width="none" opacity="1"></path></g><g id="svga-group-eyesiriswrapper-right" transform="matrix(1,0,0,1,0,0)"><g id="svga-group-eyesiriscontrol-right" transform="matrix(1,0,0,1,0,0)"><g id="svga-group-eyesiris-right"><path id="SvgjsPath3797" d="m119.8 100.2-5.5-2-1-5.8 4.5-3.8 5.5 2.1 1 5.7z" fill="#4e60a3" stroke-width="none" opacity="1"></path><path id="SvgjsPath3798" d="m115.8 95.4.7-3.1 3-1 2.3 2.1-.6 3.1-3 1z" fill="#000000" stroke-width="none" opacity="1"></path><path id="SvgjsPath3799" d="m115.7 91.7 2.2 2.1.6-.4-1.2-2.7z" fill="#ffffff" stroke-width="none" opacity="1"></path><path id="SvgjsPath3800" d="m119.7 96.4.6 1 .8-.4-.4-1z" fill="#ffffff" stroke-width="none" opacity="1"></path></g></g></g><g id="svga-group-eyesfront-right"><path id="SvgjsPath3728" d="M125 80.8h-11.2l-7.9 8.4v11.9l7.9 8.4H125l7.9-8.4V89.3l-7.9-8.5zm-.2 19.5-15.6-.3 2.5-7 11.3-3.2 7.4 2.2-5.6 8.3z" fill="#f0c7b1" stroke-width="none" opacity="1" stroke="none"></path><path id="SvgjsPath3731" d="m108.8 101.3 2.1-8.9 6.5-2.6 6.2-1 8.4 3.7-9-2.5-11 3.3z" fill="#000000" stroke-width="none" opacity="1" stroke="none"></path></g></g></g><g id="svga-group-facehighlight-single"></g><g id="svga-group-eyebrows-left-move" transform="matrix(1,0,0,1,0,0)"><g id="svga-group-eyebrows-left-rotate" transform="matrix(1,1.7453292144864463e-9,-1.7453292144864463e-9,1,1.4451326535436237e-7,-1.3849188462700113e-7)"><g id="svga-group-eyebrows-left"><path id="SvgjsPath3646" d="M74.2 77.6 71 79l-5 9 8.5-4.6 17.3 3.7.9-6z" fill="#2a232b" stroke-width="none" opacity="1"></path><path id="SvgjsPath3647" d="m87.9 84-1.2-4-1.7-.4 2.9 4.4zM73 78.2l5.6 4.6-4.4-5.2-1.2.6zm6.9.5 3.8 5-1.9-4.6-1.9-.4zm-11.7 5.4 2.7-1.5-2.1.5-.6 1zm14.7-4.8 1.7 1.9-.5-1.7-1.2-.2zm-12.4.7 3.8.8L71 79l-.5 1zm16.6.1 3.5 5.2-1.4-4.7-2.1-.5z" fill="#3a353a" stroke-width="none" opacity="1"></path></g></g></g><g id="svga-group-eyebrows-right-move" transform="matrix(1,0,0,1,0,0)"><g id="svga-group-eyebrows-right-rotate" transform="matrix(1,1.7453292144864463e-9,-1.7453292144864463e-9,1,1.4451326535436237e-7,-2.1057397248114285e-7)"><g id="svga-group-eyebrows-right"><path id="SvgjsPath3648" d="m107.3 81.1.9 6 17.3-3.7L134 88l-5-9-3.2-1.4z" fill="#2a232b" stroke-width="none" opacity="1"></path><path id="SvgjsPath3649" d="m115 79.6-1.7.3-1.2 4 2.9-4.3zm10.8-2-4.4 5.2 5.6-4.6-1.2-.6zm-7.6 1.5-1.9 4.6 3.8-5-1.9.4zm12.9 4-2.1-.5 2.7 1.5-.6-1zm-15.2-3.6-.5 1.7 1.7-1.9-1.2.2zM129 79l-3.2 1.8 3.8-.8-.6-1zm-18.2 1.5-1.4 4.7 3.5-5.2-2.1.5z" fill="#3a353a" stroke-width="none" opacity="1"></path></g></g></g><g id="svga-group-beardwrap"><g id="svga-group-beard-single-move" transform="matrix(1,0,0,1,0,0)"><g id="svga-group-beard-single"><path id="SvgjsPath4821" d="m118 116.8-10.7.8-6.3 1.8h-2l-6.3-1.8-10.7-.8-6.6 4.5.1 12.9 7.4 13.6 10.6 7.1h13l10.6-7.1 7.4-13.6.1-12.9-6.6-4.5zm-1.4 16.2-5.7 7.3-5.5 2.2-1.2-1.1v-3.9H96v3.9l-1.2 1.1-5.5-2.2-5.7-7.3-2-10.8 2.8-1.8 14.6 1.9h2.4l14.6-1.9 2.8 1.8-2.2 10.8z" fill="#2a232b" stroke-width="none" opacity="1"></path><path id="SvgjsPath4822" d="M94.3 153.7c-.3.1-7.7-6.5-7.7-6.5l-8.1-13.1-1.6-11.4 5.1-4.6 8.8.4 9.8 2.1 8.2-3-1.5.1-6.3 1.8h-2l-6.3-1.8-10.7-.9-6.6 4.5.1 12.9 7.4 13.6 10.6 7.1h13l10.6-7.1-10.9 5.7s-11.6.1-11.9.2zm2.2-12-.5-4.2v3.9l-1.2 1.1-5.5-2.2c.1.4 5 2.4 5.2 2.8.1.2 2-1.4 2-1.4zm4.7-19.5 14.6-1.9 2.8 1.8-2 10.8-5.7 7.3-5.5 2.2 6-2 6.1-7 2.7-11.6-3.4-2.5-15.6 2.9z" fill="#1b141c" stroke-width="none" opacity="1"></path></g></g></g><g id="svga-group-mustache-single-move" transform="matrix(1,0,0,1,0,0)"><g id="svga-group-mustache-single"></g></g><g id="svga-group-nose-single-move" transform="matrix(1,0,0,1,0,0)"><g id="svga-group-nose-single"><path id="SvgjsPath3830" d="m96.12 99.91-.45 6.4-5.78 8.87 2.98 2.25 1.63-2.02 4.32 3.82h2.41l4.27-3.82 1.57 1.96 3.15-2.19-5.79-8.92-.56-6.46-3.82-1.63z" fill="#f0c7b1" stroke-width="none" opacity="1" transform="translate(0 1)" stroke="none"></path><path id="SvgjsPath3831" d="m104.86 106.44-1.95-15.67 1.1 14.55-.86-.22 6.58 10.06-2.34 1.73-1.28-1.51.28-1.34-5.15 4.47h-2.4l-5.15-4.47.29 1.34-1.29 1.51-2.34-1.73 6.59-10.06-.86.22 1.33-22.81-2.19 23.93-5.82 8.83 3.81 2.79 1.44-2.01 4.19 3.91h2.4l4.2-3.91 1.43 2.01 3.81-2.79z" fill="#d19271" stroke-width="none" opacity="1" transform="translate(0 1)" stroke="none"></path><path id="SvgjsPath3832" d="m96.15 113.17 2.37 1.46 3.1.06 2.55-1.16-.3-1.76-3.59-.6-3.94.66z" fill="#f8d5c3" stroke-width="none" opacity="1" transform="translate(0 1)" stroke="none"></path></g></g><g id="svga-group-hair-front"><path id="SvgjsPath4625" d="m98.8 61.4-13.7-3.5s-8 11.2-8.2 11.7c-.1.5-1.8 17.9-1.8 17.9l-2.3-17.4.9-8.4-2.6 8.5-.9 19.3-3.4-16.4 1.2-8.5-3 9.4-1.4 25.7-.5 12.9-3.7-10.7-1.5-21.6-.3 16.8L54 85l2.1-15.8-3.9 10-.8 6.8-2.9-11.6 5.7-9.5L59 52.3l10.7-9.4-14.1 9.8 6.7-11L81.9 34l7.5.6-5.3-2.8 9.8 1.8 5.4 4.3 3.6-3.1 4.3-1.8-2.1 2.5-.6 1.4 13.9-2.2 12.3 2.8-8.3.4 12.3 4.4L147.2 56l-12.8-7.4 11 9.2 2.2 15.1.6 6.5-3.8-8.4 3 11.4-.7 5.1-4 8.9-.3-14.4-5-10.9 3.2 11.6v16.8l-1.4 6.5-3.1-23.2-4.9-12.9 2.4 11.2-1.4 7.5-1.4-10.3-5.3-15.4 1.9 10.4-.9 5.9-1.6-8.6-4.3-12 1.6 8.4-3.2 13-1-16-3.5-7.3-12.7 4.9-3-.2z" fill="#2a232b" stroke-width="none" opacity="1"></path><path id="SvgjsPath4626" d="m99.3 59.1-19.2-7.2-6.2 9.8-.9 8.4 2.3 17.4-.4-19 1.1-7.4 5-7.4 18.3 5.4zm-.5 2.3-14.3-4.7L77 69.6l8.2-11.7 13.6 3.5zM70.3 89.5l-2.1-25 6.9-14.2L87.8 47l11.3 8-10.3-9.8L74 49.1l-7.4 13.8.2 11.1 3.5 15.5zm-7.1 23.1-2.3-14.8-.4-28 7-18.8 6.3-5.2-8.1 4.6L58 70.2l1.4 31.7 3.8 10.7zM51.4 86l.9-6.7 3.9-10-5.2 7.3.4 9.4zm2.8-21.1L60.9 53l8.8-10.1 20.7-3.4 7.2 3.7-7.4-5.9L69 41.2l-10 11-4.8 12.7zm29.9-33.1 5.3 2.8 9.5 7-6.3-7.2-8.5-2.6zm17.7 29.7 13-7.7 4.8 10.3L119 80l-1-16-3.5-7.3-12.7 4.8zm17.8-7.4 1.1 4.3 4.3 12 1.6 8.7-.5-7.6-3.4-11.5-3.1-5.9zm-18.8-5 8.9-5.2 10.7 1.3 9.2 12.5L119.3 47l-9.6-.4-8.9 2.5zm41.9 47.2c.1-1.2-.2-14.3-.2-14.3l-5-10.9-6.5-9.6 9.4 9.8s4.6 10.3 4.6 10.9-2.3 14.1-2.3 14.1zm5.4-17.1-3.8-8.4-4.7-9.3-6.3-5.2 9.4 3.9 5.4 19zm-1-23.4-12.8-7.4-9.5-4 10 .4 12.3 11z" fill="#1b141c" stroke-width="none" opacity="1"></path><path id="SvgjsPath4627" d="m100.6 57.9 12.9-10 4.4 3 3.4 13.9-1.2 6.9-.6-7.6-3.1-12.1-3.8-.7-12 6.6zm.3-11.9c.3-.5 11-7.4 11-7.4l13.8 1.3 9.2 2.8 7.9 8.4-9.5-7.4-8.3-1-13.6-.5-10.5 3.8zm-2.1 3.9-10.2-8.8-18.9 1.8-8 9.7 9-7.5 17.4-2 10.7 6.8zm-27.9.7L66.7 55l-5.6 17 .8 27.2L63.5 71l4.3-15 3.1-5.4zm58-3 16.5 10s.7 10.6.9 9.9c.2-.7-3.3-9.7-3.3-9.7l-14.1-10.2zm3.9 10.4 6.9 3.5 4.7 9.3 3 11.4-5.8-13.4-3.8-6.6-5-4.2z" fill="#3a353a" stroke-width="none" opacity="1"></path></g><g id="svga-group-glasses-single-move" transform="matrix(1,0,0,1,0,0)"><g id="svga-group-glasses-single"></g></g></g></g></g><rect id="svga-credit-rect" width="200" height="15" x="0" y="185" fill="#ecf0f1" opacity="0.5" style="display: none;"></rect><text id="svga-credit-text" font-family="Avenir Next, Roboto, Helvetica, Arial, sans-serif" font-size="10px" text-anchor="start" font-weight="400" size="10px" anchor="start" weight="400" fill="#333333" x="33.311859130859375" y="182.7113401889801" style="display: none;"><tspan id="SvgjsTspan3640" dy="13" x="33.311859130859375">Created on AvatarMaker.com</tspan></text></g><defs id="SvgjsDefs3587"></defs></svg>